# MagicaVoxel @ Ephtracy

# group
o 

# material
mtllib Chicken.mtl
usemtl palette

# normals
vn -1 0 0
vn 1 0 0
vn 0 0 1
vn 0 0 -1
vn 0 -1 0
vn 0 1 0

# texcoords
vt 0.0449219 0.5
vt 0.849609 0.5
vt 0.958984 0.5
vt 0.994141 0.5

# verts
v 0 1 -0.5
v 0 1 -0.6
v 0 1.1 -0.3
v 0 1.1 -0.5
v 0 1.1 -0.6
v 0 1.1 -0.8
v 0 1.2 -0.2
v 0 1.2 -0.3
v 0 1.4 -0.1
v 0 1.4 -0.2
v 0 1.4 -0.4
v 0 1.4 -0.8
v 0 1.5 -0.2
v 0 1.5 -0.3
v 0 1.6 -0.2
v 0 1.6 -0.3
v 0 1.7 -0.1
v 0 1.7 -0.4
v 0.1 1.1 -0.2
v 0.1 1.1 -0.3
v 0.1 1.1 -0.8
v 0.1 1.1 -0.9
v 0.1 1.2 -0.2
v 0.1 1.2 -0.3
v 0.1 1.4 0
v 0.1 1.4 -0.1
v 0.1 1.4 -0.8
v 0.1 1.4 -0.9
v 0.1 1.5 0
v 0.1 1.5 -0.1
v 0.1 1.7 -0.1
v 0.1 1.7 -0.3
v 0.1 1.8 -0.1
v 0.1 1.8 -0.3
v 0.3 1 -0.5
v 0.3 1 -0.6
v 0.3 1.1 -0.5
v 0.3 1.1 -0.6
v 0.1 1 -0.5
v 0.1 1 -0.6
v 0.1 1.1 -0.5
v 0.1 1.1 -0.6
v 0.3 1.1 -0.2
v 0.3 1.1 -0.3
v 0.3 1.1 -0.8
v 0.3 1.1 -0.9
v 0.3 1.2 -0.2
v 0.3 1.2 -0.3
v 0.3 1.4 0
v 0.3 1.4 -0.1
v 0.3 1.4 -0.8
v 0.3 1.4 -0.9
v 0.3 1.5 0
v 0.3 1.5 -0.1
v 0.3 1.7 -0.1
v 0.3 1.7 -0.3
v 0.3 1.8 -0.1
v 0.3 1.8 -0.3
v 0.4 1 -0.5
v 0.4 1 -0.6
v 0.4 1.1 -0.3
v 0.4 1.1 -0.5
v 0.4 1.1 -0.6
v 0.4 1.1 -0.8
v 0.4 1.2 -0.2
v 0.4 1.2 -0.3
v 0.4 1.4 -0.1
v 0.4 1.4 -0.2
v 0.4 1.4 -0.4
v 0.4 1.4 -0.8
v 0.4 1.5 -0.2
v 0.4 1.5 -0.3
v 0.4 1.6 -0.2
v 0.4 1.6 -0.3
v 0.4 1.7 -0.1
v 0.4 1.7 -0.4
v 0.1 1.4 0
v 0.1 1.5 0
v 0.3 1.4 0
v 0.3 1.5 0
v 0 1.4 -0.1
v 0 1.7 -0.1
v 0.1 1.4 -0.1
v 0.1 1.5 -0.1
v 0.1 1.7 -0.1
v 0.1 1.8 -0.1
v 0.3 1.4 -0.1
v 0.3 1.5 -0.1
v 0.3 1.7 -0.1
v 0.3 1.8 -0.1
v 0.4 1.4 -0.1
v 0.4 1.7 -0.1
v 0 1.2 -0.2
v 0 1.4 -0.2
v 0.1 1.1 -0.2
v 0.1 1.2 -0.2
v 0.3 1.1 -0.2
v 0.3 1.2 -0.2
v 0.4 1.2 -0.2
v 0.4 1.4 -0.2
v 0 1.1 -0.3
v 0 1.2 -0.3
v 0.1 1.1 -0.3
v 0.1 1.2 -0.3
v 0.3 1.1 -0.3
v 0.3 1.2 -0.3
v 0.4 1.1 -0.3
v 0.4 1.2 -0.3
v 0 1 -0.5
v 0 1.1 -0.5
v 0.1 1 -0.5
v 0.1 1.1 -0.5
v 0.3 1 -0.5
v 0.3 1.1 -0.5
v 0.4 1 -0.5
v 0.4 1.1 -0.5
v 0.1 1.7 -0.3
v 0.1 1.8 -0.3
v 0.3 1.7 -0.3
v 0.3 1.8 -0.3
v 0 1.4 -0.4
v 0 1.7 -0.4
v 0.4 1.4 -0.4
v 0.4 1.7 -0.4
v 0 1 -0.6
v 0 1.1 -0.6
v 0.1 1 -0.6
v 0.1 1.1 -0.6
v 0.3 1 -0.6
v 0.3 1.1 -0.6
v 0.4 1 -0.6
v 0.4 1.1 -0.6
v 0 1.1 -0.8
v 0 1.4 -0.8
v 0.1 1.1 -0.8
v 0.1 1.4 -0.8
v 0.3 1.1 -0.8
v 0.3 1.4 -0.8
v 0.4 1.1 -0.8
v 0.4 1.4 -0.8
v 0.1 1.1 -0.9
v 0.1 1.4 -0.9
v 0.3 1.1 -0.9
v 0.3 1.4 -0.9
v 0 1 -0.5
v 0.1 1 -0.5
v 0.3 1 -0.5
v 0.4 1 -0.5
v 0 1 -0.6
v 0.1 1 -0.6
v 0.3 1 -0.6
v 0.4 1 -0.6
v 0.1 1.1 -0.2
v 0.3 1.1 -0.2
v 0 1.1 -0.3
v 0.1 1.1 -0.3
v 0.3 1.1 -0.3
v 0.4 1.1 -0.3
v 0 1.1 -0.5
v 0.1 1.1 -0.5
v 0.3 1.1 -0.5
v 0.4 1.1 -0.5
v 0 1.1 -0.6
v 0.1 1.1 -0.6
v 0.3 1.1 -0.6
v 0.4 1.1 -0.6
v 0 1.1 -0.8
v 0.1 1.1 -0.8
v 0.3 1.1 -0.8
v 0.4 1.1 -0.8
v 0.1 1.1 -0.9
v 0.3 1.1 -0.9
v 0 1.2 -0.2
v 0.1 1.2 -0.2
v 0.3 1.2 -0.2
v 0.4 1.2 -0.2
v 0 1.2 -0.3
v 0.1 1.2 -0.3
v 0.3 1.2 -0.3
v 0.4 1.2 -0.3
v 0.1 1.4 0
v 0.3 1.4 0
v 0 1.4 -0.1
v 0.1 1.4 -0.1
v 0.3 1.4 -0.1
v 0.4 1.4 -0.1
v 0 1.4 -0.2
v 0.4 1.4 -0.2
v 0 1.4 -0.4
v 0.4 1.4 -0.4
v 0 1.4 -0.8
v 0.1 1.4 -0.8
v 0.3 1.4 -0.8
v 0.4 1.4 -0.8
v 0.1 1.4 -0.9
v 0.3 1.4 -0.9
v 0.1 1.5 0
v 0.3 1.5 0
v 0.1 1.5 -0.1
v 0.3 1.5 -0.1
v 0 1.7 -0.1
v 0.1 1.7 -0.1
v 0.3 1.7 -0.1
v 0.4 1.7 -0.1
v 0.1 1.7 -0.3
v 0.3 1.7 -0.3
v 0 1.7 -0.4
v 0.4 1.7 -0.4
v 0.1 1.8 -0.1
v 0.3 1.8 -0.1
v 0.1 1.8 -0.3
v 0.3 1.8 -0.3

# faces
f 4/4/1 2/4/1 1/4/1
f 5/4/1 2/4/1 4/4/1
f 8/3/1 4/3/1 3/3/1
f 8/3/1 6/3/1 5/3/1
f 8/3/1 5/3/1 4/3/1
f 10/3/1 8/3/1 7/3/1
f 11/3/1 6/3/1 8/3/1
f 11/3/1 8/3/1 10/3/1
f 12/3/1 6/3/1 11/3/1
f 13/3/1 10/3/1 9/3/1
f 13/3/1 11/3/1 10/3/1
f 14/3/1 11/3/1 13/3/1
f 15/3/1 13/3/1 9/3/1
f 15/4/1 14/4/1 13/4/1
f 16/3/1 11/3/1 14/3/1
f 16/4/1 14/4/1 15/4/1
f 17/3/1 15/3/1 9/3/1
f 17/3/1 16/3/1 15/3/1
f 18/3/1 11/3/1 16/3/1
f 18/3/1 16/3/1 17/3/1
f 23/3/1 20/3/1 19/3/1
f 24/3/1 20/3/1 23/3/1
f 27/3/1 22/3/1 21/3/1
f 28/3/1 22/3/1 27/3/1
f 29/1/1 26/1/1 25/1/1
f 30/1/1 26/1/1 29/1/1
f 33/2/1 32/2/1 31/2/1
f 34/2/1 32/2/1 33/2/1
f 37/4/1 36/4/1 35/4/1
f 38/4/1 36/4/1 37/4/1
f 39/4/2 40/4/2 41/4/2
f 41/4/2 40/4/2 42/4/2
f 43/3/2 44/3/2 47/3/2
f 47/3/2 44/3/2 48/3/2
f 45/3/2 46/3/2 51/3/2
f 51/3/2 46/3/2 52/3/2
f 49/1/2 50/1/2 53/1/2
f 53/1/2 50/1/2 54/1/2
f 55/2/2 56/2/2 57/2/2
f 57/2/2 56/2/2 58/2/2
f 59/4/2 60/4/2 62/4/2
f 62/4/2 60/4/2 63/4/2
f 61/3/2 62/3/2 66/3/2
f 63/3/2 64/3/2 66/3/2
f 62/3/2 63/3/2 66/3/2
f 65/3/2 66/3/2 68/3/2
f 66/3/2 64/3/2 69/3/2
f 68/3/2 66/3/2 69/3/2
f 69/3/2 64/3/2 70/3/2
f 67/3/2 68/3/2 71/3/2
f 68/3/2 69/3/2 71/3/2
f 71/3/2 69/3/2 72/3/2
f 67/3/2 71/3/2 73/3/2
f 71/4/2 72/4/2 73/4/2
f 72/3/2 69/3/2 74/3/2
f 73/4/2 72/4/2 74/4/2
f 67/3/2 73/3/2 75/3/2
f 73/3/2 74/3/2 75/3/2
f 74/3/2 69/3/2 76/3/2
f 75/3/2 74/3/2 76/3/2
f 79/1/3 78/1/3 77/1/3
f 80/1/3 78/1/3 79/1/3
f 83/3/3 82/3/3 81/3/3
f 84/3/3 82/3/3 83/3/3
f 85/3/3 82/3/3 84/3/3
f 88/3/3 85/3/3 84/3/3
f 89/2/3 86/2/3 85/2/3
f 89/3/3 85/3/3 88/3/3
f 90/2/3 86/2/3 89/2/3
f 91/3/3 88/3/3 87/3/3
f 91/3/3 89/3/3 88/3/3
f 92/3/3 89/3/3 91/3/3
f 96/3/3 94/3/3 93/3/3
f 97/3/3 96/3/3 95/3/3
f 98/3/3 94/3/3 96/3/3
f 98/3/3 96/3/3 97/3/3
f 99/3/3 94/3/3 98/3/3
f 100/3/3 94/3/3 99/3/3
f 103/3/3 102/3/3 101/3/3
f 104/3/3 102/3/3 103/3/3
f 107/3/3 106/3/3 105/3/3
f 108/3/3 106/3/3 107/3/3
f 111/4/3 110/4/3 109/4/3
f 112/4/3 110/4/3 111/4/3
f 115/4/3 114/4/3 113/4/3
f 116/4/3 114/4/3 115/4/3
f 117/2/4 118/2/4 119/2/4
f 119/2/4 118/2/4 120/2/4
f 121/3/4 122/3/4 123/3/4
f 123/3/4 122/3/4 124/3/4
f 125/4/4 126/4/4 127/4/4
f 127/4/4 126/4/4 128/4/4
f 129/4/4 130/4/4 131/4/4
f 131/4/4 130/4/4 132/4/4
f 133/3/4 134/3/4 135/3/4
f 135/3/4 134/3/4 136/3/4
f 137/3/4 138/3/4 139/3/4
f 139/3/4 138/3/4 140/3/4
f 141/3/4 142/3/4 143/3/4
f 143/3/4 142/3/4 144/3/4
f 149/4/5 146/4/5 145/4/5
f 150/4/5 146/4/5 149/4/5
f 151/4/5 148/4/5 147/4/5
f 152/4/5 148/4/5 151/4/5
f 156/3/5 154/3/5 153/3/5
f 157/3/5 154/3/5 156/3/5
f 159/3/5 156/3/5 155/3/5
f 159/3/5 158/3/5 157/3/5
f 159/3/5 157/3/5 156/3/5
f 160/3/5 158/3/5 159/3/5
f 161/3/5 158/3/5 160/3/5
f 162/3/5 158/3/5 161/3/5
f 164/3/5 161/3/5 160/3/5
f 165/3/5 161/3/5 164/3/5
f 167/3/5 164/3/5 163/3/5
f 167/3/5 166/3/5 165/3/5
f 167/3/5 165/3/5 164/3/5
f 168/3/5 166/3/5 167/3/5
f 169/3/5 166/3/5 168/3/5
f 170/3/5 166/3/5 169/3/5
f 171/3/5 169/3/5 168/3/5
f 172/3/5 169/3/5 171/3/5
f 177/3/5 174/3/5 173/3/5
f 178/3/5 174/3/5 177/3/5
f 179/3/5 176/3/5 175/3/5
f 180/3/5 176/3/5 179/3/5
f 184/1/5 182/1/5 181/1/5
f 185/1/5 182/1/5 184/1/5
f 187/3/5 184/3/5 183/3/5
f 187/3/5 186/3/5 185/3/5
f 187/3/5 185/3/5 184/3/5
f 188/3/5 186/3/5 187/3/5
f 189/3/6 190/3/6 191/3/6
f 191/3/6 190/3/6 192/3/6
f 192/3/6 190/3/6 193/3/6
f 193/3/6 190/3/6 194/3/6
f 192/3/6 193/3/6 195/3/6
f 195/3/6 193/3/6 196/3/6
f 197/1/6 198/1/6 199/1/6
f 199/1/6 198/1/6 200/1/6
f 201/3/6 202/3/6 205/3/6
f 203/3/6 204/3/6 206/3/6
f 201/3/6 205/3/6 207/3/6
f 205/3/6 206/3/6 207/3/6
f 206/3/6 204/3/6 208/3/6
f 207/3/6 206/3/6 208/3/6
f 209/2/6 210/2/6 211/2/6
f 211/2/6 210/2/6 212/2/6
