# MagicaVoxel @ Ephtracy

# group
o 

# material
mtllib Skeleton.mtl
usemtl palette

# normals
vn -1 0 0
vn 1 0 0
vn 0 0 1
vn 0 0 -1
vn 0 -1 0
vn 0 1 0

# texcoords
vt 0.958984 0.5
vt 0.966797 0.5
vt 0.994141 0.5

# verts
v 0 1.5 -0.1
v 0 1.5 -0.3
v 0 1.6 0
v 0 1.6 -0.1
v 0 1.6 -0.3
v 0 1.6 -0.4
v 0 1.7 -0.3
v 0 1.7 -0.4
v 0 1.8 0
v 0 1.8 -0.1
v 0 1.9 0
v 0 1.9 -0.1
v 0 1.9 -0.2
v 0 1.9 -0.3
v 0 1.9 -0.4
v 0 2 -0.1
v 0 2 -0.2
v 0 2 -0.3
v 0.1 1 0
v 0.1 1 -0.3
v 0.1 1.1 0
v 0.1 1.1 -0.3
v 0.1 1.3 0
v 0.1 1.3 -0.1
v 0.1 1.3 -0.3
v 0.1 1.4 0
v 0.1 1.4 -0.1
v 0.1 1.4 -0.3
v 0.1 1.5 0
v 0.1 1.5 -0.1
v 0.1 1.5 -0.3
v 0.1 1.5 -0.4
v 0.1 1.6 0
v 0.1 1.6 -0.1
v 0.1 1.6 -0.3
v 0.1 1.6 -0.4
v 0.1 1.7 -0.4
v 0.1 1.7 -0.5
v 0.1 1.9 0
v 0.1 1.9 -0.1
v 0.1 1.9 -0.3
v 0.1 1.9 -0.4
v 0.1 1.9 -0.5
v 0.1 2 0
v 0.1 2 -0.1
v 0.1 2 -0.2
v 0.1 2 -0.3
v 0.1 2 -0.4
v 0.1 2.1 -0.1
v 0.1 2.1 -0.2
v 0.1 2.1 -0.3
v 0.2 1.1 -0.1
v 0.2 1.1 -0.2
v 0.2 1.2 0
v 0.2 1.2 -0.1
v 0.2 1.2 -0.2
v 0.2 1.2 -0.3
v 0.2 1.3 0
v 0.2 1.3 -0.1
v 0.2 1.3 -0.3
v 0.2 1.4 -0.1
v 0.2 1.4 -0.2
v 0.2 1.5 -0.1
v 0.2 1.5 -0.2
v 0.2 1.6 0
v 0.2 1.6 -0.1
v 0.2 1.6 -0.4
v 0.2 1.6 -0.5
v 0.2 1.7 0
v 0.2 1.7 -0.1
v 0.2 1.7 -0.4
v 0.2 1.7 -0.5
v 0.2 1.9 -0.4
v 0.2 1.9 -0.5
v 0.2 2 -0.3
v 0.2 2 -0.4
v 0.2 2 -0.5
v 0.2 2.1 -0.3
v 0.2 2.1 -0.4
v 0.5 1.6 0
v 0.5 1.6 -0.1
v 0.5 1.7 0
v 0.5 1.7 -0.1
v 0.1 1.6 0
v 0.1 1.6 -0.1
v 0.1 1.7 0
v 0.1 1.7 -0.1
v 0.4 1.1 -0.1
v 0.4 1.1 -0.2
v 0.4 1.2 0
v 0.4 1.2 -0.1
v 0.4 1.2 -0.2
v 0.4 1.2 -0.3
v 0.4 1.3 0
v 0.4 1.3 -0.2
v 0.4 1.3 -0.3
v 0.4 1.4 -0.1
v 0.4 1.4 -0.2
v 0.4 1.5 -0.1
v 0.4 1.5 -0.2
v 0.4 1.6 0
v 0.4 1.6 -0.1
v 0.4 1.6 -0.4
v 0.4 1.6 -0.5
v 0.4 1.7 0
v 0.4 1.7 -0.1
v 0.4 1.7 -0.4
v 0.4 1.7 -0.5
v 0.4 1.9 -0.4
v 0.4 1.9 -0.5
v 0.4 2 -0.3
v 0.4 2 -0.4
v 0.4 2 -0.5
v 0.4 2.1 -0.3
v 0.4 2.1 -0.4
v 0.5 1 0
v 0.5 1 -0.3
v 0.5 1.1 0
v 0.5 1.1 -0.3
v 0.5 1.3 0
v 0.5 1.3 -0.2
v 0.5 1.3 -0.3
v 0.5 1.4 0
v 0.5 1.4 -0.2
v 0.5 1.4 -0.3
v 0.5 1.5 0
v 0.5 1.5 -0.1
v 0.5 1.5 -0.3
v 0.5 1.5 -0.4
v 0.5 1.6 0
v 0.5 1.6 -0.1
v 0.5 1.6 -0.3
v 0.5 1.6 -0.4
v 0.5 1.7 -0.4
v 0.5 1.7 -0.5
v 0.5 1.8 -0.4
v 0.5 1.9 0
v 0.5 1.9 -0.1
v 0.5 1.9 -0.3
v 0.5 1.9 -0.4
v 0.5 1.9 -0.5
v 0.5 2 0
v 0.5 2 -0.1
v 0.5 2 -0.2
v 0.5 2 -0.3
v 0.5 2 -0.4
v 0.5 2.1 -0.1
v 0.5 2.1 -0.3
v 0.6 1.5 -0.1
v 0.6 1.5 -0.3
v 0.6 1.6 0
v 0.6 1.6 -0.1
v 0.6 1.6 -0.3
v 0.6 1.6 -0.4
v 0.6 1.7 0
v 0.6 1.7 -0.1
v 0.6 1.7 -0.3
v 0.6 1.7 -0.4
v 0.6 1.8 -0.2
v 0.6 1.8 -0.4
v 0.6 1.9 0
v 0.6 1.9 -0.1
v 0.6 1.9 -0.3
v 0.6 1.9 -0.4
v 0.6 2 -0.1
v 0.6 2 -0.2
v 0.6 2 -0.3
v 0 1.6 0
v 0 1.8 0
v 0 1.9 0
v 0.1 1 0
v 0.1 1.1 0
v 0.1 1.3 0
v 0.1 1.4 0
v 0.1 1.5 0
v 0.1 1.6 0
v 0.1 1.7 0
v 0.1 1.8 0
v 0.1 1.9 0
v 0.1 2 0
v 0.2 1.2 0
v 0.2 1.3 0
v 0.2 1.4 0
v 0.2 1.6 0
v 0.2 1.7 0
v 0.2 1.9 0
v 0.2 2 0
v 0.3 1.2 0
v 0.3 1.3 0
v 0.4 1.2 0
v 0.4 1.3 0
v 0.4 1.5 0
v 0.4 1.6 0
v 0.4 1.7 0
v 0.5 1 0
v 0.5 1.1 0
v 0.5 1.3 0
v 0.5 1.4 0
v 0.5 1.5 0
v 0.5 1.6 0
v 0.5 1.7 0
v 0.5 1.9 0
v 0.5 2 0
v 0.6 1.6 0
v 0.6 1.7 0
v 0.6 1.9 0
v 0 1.5 -0.1
v 0 1.6 -0.1
v 0 1.9 -0.1
v 0 2 -0.1
v 0.1 1.5 -0.1
v 0.1 1.6 -0.1
v 0.1 1.7 -0.1
v 0.1 1.9 -0.1
v 0.1 2 -0.1
v 0.1 2.1 -0.1
v 0.2 1.1 -0.1
v 0.2 1.2 -0.1
v 0.2 1.4 -0.1
v 0.2 1.5 -0.1
v 0.2 1.6 -0.1
v 0.2 1.7 -0.1
v 0.2 2 -0.1
v 0.2 2.1 -0.1
v 0.3 1.2 -0.1
v 0.4 1.1 -0.1
v 0.4 1.2 -0.1
v 0.4 1.4 -0.1
v 0.4 1.5 -0.1
v 0.4 1.6 -0.1
v 0.4 1.7 -0.1
v 0.5 1.5 -0.1
v 0.5 1.6 -0.1
v 0.5 1.7 -0.1
v 0.5 1.9 -0.1
v 0.5 2 -0.1
v 0.5 2.1 -0.1
v 0.6 1.5 -0.1
v 0.6 1.6 -0.1
v 0.6 1.9 -0.1
v 0.6 2 -0.1
v 0.2 1.1 -0.2
v 0.2 1.2 -0.2
v 0.2 1.4 -0.2
v 0.2 1.5 -0.2
v 0.3 1.2 -0.2
v 0.4 1.1 -0.2
v 0.4 1.2 -0.2
v 0.4 1.4 -0.2
v 0.4 1.5 -0.2
v 0 1.5 -0.3
v 0 1.6 -0.3
v 0 1.9 -0.3
v 0 2 -0.3
v 0.1 1 -0.3
v 0.1 1.1 -0.3
v 0.1 1.3 -0.3
v 0.1 1.4 -0.3
v 0.1 1.5 -0.3
v 0.1 1.6 -0.3
v 0.1 1.9 -0.3
v 0.1 2 -0.3
v 0.1 2.1 -0.3
v 0.2 1.2 -0.3
v 0.2 1.3 -0.3
v 0.2 2 -0.3
v 0.2 2.1 -0.3
v 0.3 1.2 -0.3
v 0.3 1.3 -0.3
v 0.4 1.2 -0.3
v 0.4 1.3 -0.3
v 0.4 1.4 -0.3
v 0.4 2 -0.3
v 0.4 2.1 -0.3
v 0.5 1 -0.3
v 0.5 1.1 -0.3
v 0.5 1.3 -0.3
v 0.5 1.4 -0.3
v 0.5 1.5 -0.3
v 0.5 1.6 -0.3
v 0.5 1.9 -0.3
v 0.5 2 -0.3
v 0.5 2.1 -0.3
v 0.6 1.5 -0.3
v 0.6 1.6 -0.3
v 0.6 1.9 -0.3
v 0.6 2 -0.3
v 0 1.6 -0.4
v 0 1.7 -0.4
v 0 1.9 -0.4
v 0.1 1.5 -0.4
v 0.1 1.6 -0.4
v 0.1 1.7 -0.4
v 0.1 1.9 -0.4
v 0.1 2 -0.4
v 0.2 1.5 -0.4
v 0.2 1.6 -0.4
v 0.2 1.7 -0.4
v 0.2 1.9 -0.4
v 0.2 2 -0.4
v 0.2 2.1 -0.4
v 0.3 1.6 -0.4
v 0.3 2 -0.4
v 0.4 1.5 -0.4
v 0.4 1.6 -0.4
v 0.4 1.7 -0.4
v 0.4 1.9 -0.4
v 0.4 2 -0.4
v 0.4 2.1 -0.4
v 0.5 1.5 -0.4
v 0.5 1.6 -0.4
v 0.5 1.7 -0.4
v 0.5 1.8 -0.4
v 0.5 1.9 -0.4
v 0.5 2 -0.4
v 0.6 1.6 -0.4
v 0.6 1.7 -0.4
v 0.6 1.8 -0.4
v 0.6 1.9 -0.4
v 0.1 1.7 -0.5
v 0.1 1.9 -0.5
v 0.2 1.6 -0.5
v 0.2 1.7 -0.5
v 0.2 1.9 -0.5
v 0.2 2 -0.5
v 0.3 1.6 -0.5
v 0.3 1.7 -0.5
v 0.3 1.9 -0.5
v 0.3 2 -0.5
v 0.4 1.6 -0.5
v 0.4 1.7 -0.5
v 0.4 1.9 -0.5
v 0.4 2 -0.5
v 0.5 1.7 -0.5
v 0.5 1.9 -0.5
v 0.1 1 0
v 0.5 1 0
v 0.1 1 -0.3
v 0.5 1 -0.3
v 0.2 1.2 0
v 0.3 1.2 0
v 0.4 1.2 0
v 0.2 1.2 -0.1
v 0.3 1.2 -0.1
v 0.4 1.2 -0.1
v 0.2 1.2 -0.2
v 0.3 1.2 -0.2
v 0.4 1.2 -0.2
v 0.2 1.2 -0.3
v 0.3 1.2 -0.3
v 0.4 1.2 -0.3
v 0.1 1.3 0
v 0.2 1.3 0
v 0.4 1.3 0
v 0.5 1.3 0
v 0.1 1.3 -0.1
v 0.2 1.3 -0.1
v 0.4 1.3 -0.2
v 0.5 1.3 -0.2
v 0.1 1.3 -0.3
v 0.2 1.3 -0.3
v 0.4 1.3 -0.3
v 0.5 1.3 -0.3
v 0.1 1.5 0
v 0.4 1.5 0
v 0.5 1.5 0
v 0 1.5 -0.1
v 0.1 1.5 -0.1
v 0.2 1.5 -0.1
v 0.4 1.5 -0.1
v 0.5 1.5 -0.1
v 0.6 1.5 -0.1
v 0.2 1.5 -0.2
v 0.4 1.5 -0.2
v 0 1.5 -0.3
v 0.1 1.5 -0.3
v 0.2 1.5 -0.3
v 0.4 1.5 -0.3
v 0.5 1.5 -0.3
v 0.6 1.5 -0.3
v 0.1 1.5 -0.4
v 0.2 1.5 -0.4
v 0.4 1.5 -0.4
v 0.5 1.5 -0.4
v 0 1.6 0
v 0.1 1.6 0
v 0.5 1.6 0
v 0.6 1.6 0
v 0 1.6 -0.1
v 0.1 1.6 -0.1
v 0.5 1.6 -0.1
v 0.6 1.6 -0.1
v 0 1.6 -0.3
v 0.1 1.6 -0.3
v 0.5 1.6 -0.3
v 0.6 1.6 -0.3
v 0 1.6 -0.4
v 0.1 1.6 -0.4
v 0.2 1.6 -0.4
v 0.3 1.6 -0.4
v 0.4 1.6 -0.4
v 0.5 1.6 -0.4
v 0.6 1.6 -0.4
v 0.2 1.6 -0.5
v 0.3 1.6 -0.5
v 0.4 1.6 -0.5
v 0.1 1.7 0
v 0.2 1.7 0
v 0.4 1.7 0
v 0.5 1.7 0
v 0.1 1.7 -0.1
v 0.2 1.7 -0.1
v 0.4 1.7 -0.1
v 0.5 1.7 -0.1
v 0.1 1.7 -0.4
v 0.2 1.7 -0.4
v 0.4 1.7 -0.4
v 0.5 1.7 -0.4
v 0.1 1.7 -0.5
v 0.2 1.7 -0.5
v 0.4 1.7 -0.5
v 0.5 1.7 -0.5
v 0.1 1.1 0
v 0.5 1.1 0
v 0.2 1.1 -0.1
v 0.4 1.1 -0.1
v 0.2 1.1 -0.2
v 0.4 1.1 -0.2
v 0.1 1.1 -0.3
v 0.5 1.1 -0.3
v 0.1 1.4 0
v 0.2 1.4 0
v 0.5 1.4 0
v 0.1 1.4 -0.1
v 0.2 1.4 -0.1
v 0.4 1.4 -0.1
v 0.2 1.4 -0.2
v 0.4 1.4 -0.2
v 0.5 1.4 -0.2
v 0.1 1.4 -0.3
v 0.4 1.4 -0.3
v 0.5 1.4 -0.3
v 0.1 1.6 0
v 0.2 1.6 0
v 0.4 1.6 0
v 0.5 1.6 0
v 0.1 1.6 -0.1
v 0.2 1.6 -0.1
v 0.4 1.6 -0.1
v 0.5 1.6 -0.1
v 0 1.9 0
v 0.1 1.9 0
v 0.5 1.9 0
v 0.6 1.9 0
v 0 1.9 -0.1
v 0.1 1.9 -0.1
v 0.5 1.9 -0.1
v 0.6 1.9 -0.1
v 0 1.9 -0.3
v 0.1 1.9 -0.3
v 0.5 1.9 -0.3
v 0.6 1.9 -0.3
v 0 1.9 -0.4
v 0.1 1.9 -0.4
v 0.2 1.9 -0.4
v 0.4 1.9 -0.4
v 0.5 1.9 -0.4
v 0.6 1.9 -0.4
v 0.1 1.9 -0.5
v 0.2 1.9 -0.5
v 0.4 1.9 -0.5
v 0.5 1.9 -0.5
v 0.1 2 0
v 0.2 2 0
v 0.5 2 0
v 0 2 -0.1
v 0.1 2 -0.1
v 0.2 2 -0.1
v 0.5 2 -0.1
v 0.6 2 -0.1
v 0 2 -0.2
v 0.1 2 -0.2
v 0.5 2 -0.2
v 0.6 2 -0.2
v 0 2 -0.3
v 0.1 2 -0.3
v 0.2 2 -0.3
v 0.4 2 -0.3
v 0.5 2 -0.3
v 0.6 2 -0.3
v 0.1 2 -0.4
v 0.2 2 -0.4
v 0.3 2 -0.4
v 0.4 2 -0.4
v 0.5 2 -0.4
v 0.2 2 -0.5
v 0.3 2 -0.5
v 0.4 2 -0.5
v 0.1 2.1 -0.1
v 0.2 2.1 -0.1
v 0.5 2.1 -0.1
v 0.1 2.1 -0.2
v 0.2 2.1 -0.2
v 0.1 2.1 -0.3
v 0.2 2.1 -0.3
v 0.4 2.1 -0.3
v 0.5 2.1 -0.3
v 0.2 2.1 -0.4
v 0.4 2.1 -0.4

# faces
f 4/1/1 2/1/1 1/1/1
f 5/1/1 2/1/1 4/1/1
f 7/1/1 4/1/1 3/1/1
f 7/2/1 6/2/1 5/2/1
f 7/1/1 5/1/1 4/1/1
f 8/2/1 6/2/1 7/2/1
f 9/1/1 7/1/1 3/1/1
f 9/1/1 8/1/1 7/1/1
f 10/1/1 8/1/1 9/1/1
f 11/2/1 10/2/1 9/2/1
f 12/1/1 8/1/1 10/1/1
f 12/2/1 10/2/1 11/2/1
f 13/1/1 8/1/1 12/1/1
f 14/1/1 8/1/1 13/1/1
f 15/1/1 8/1/1 14/1/1
f 16/2/1 13/2/1 12/2/1
f 17/1/1 14/1/1 13/1/1
f 17/2/1 13/2/1 16/2/1
f 18/1/1 14/1/1 17/1/1
f 21/1/1 20/1/1 19/1/1
f 22/1/1 20/1/1 21/1/1
f 26/2/1 24/2/1 23/2/1
f 27/1/1 25/1/1 24/1/1
f 27/2/1 24/2/1 26/2/1
f 28/1/1 25/1/1 27/1/1
f 33/1/1 30/1/1 29/1/1
f 34/1/1 30/1/1 33/1/1
f 35/2/1 32/2/1 31/2/1
f 36/2/1 32/2/1 35/2/1
f 42/2/1 38/2/1 37/2/1
f 43/2/1 38/2/1 42/2/1
f 44/2/1 40/2/1 39/2/1
f 45/2/1 40/2/1 44/2/1
f 47/2/1 42/2/1 41/2/1
f 48/2/1 42/2/1 47/2/1
f 49/2/1 46/2/1 45/2/1
f 50/1/1 47/1/1 46/1/1
f 50/2/1 46/2/1 49/2/1
f 51/1/1 47/1/1 50/1/1
f 55/2/1 53/2/1 52/2/1
f 56/2/1 53/2/1 55/2/1
f 58/2/1 55/2/1 54/2/1
f 59/1/1 57/1/1 56/1/1
f 59/2/1 55/2/1 58/2/1
f 59/1/1 56/1/1 55/1/1
f 60/1/1 57/1/1 59/1/1
f 63/2/1 62/2/1 61/2/1
f 64/2/1 62/2/1 63/2/1
f 69/1/1 66/1/1 65/1/1
f 70/1/1 66/1/1 69/1/1
f 71/2/1 68/2/1 67/2/1
f 72/2/1 68/2/1 71/2/1
f 76/2/1 74/2/1 73/2/1
f 77/2/1 74/2/1 76/2/1
f 78/1/1 76/1/1 75/1/1
f 79/1/1 76/1/1 78/1/1
f 82/2/1 81/2/1 80/2/1
f 83/2/1 81/2/1 82/2/1
f 84/1/2 85/1/2 86/1/2
f 86/1/2 85/1/2 87/1/2
f 88/2/2 89/2/2 91/2/2
f 91/2/2 89/2/2 92/2/2
f 90/1/2 91/1/2 94/1/2
f 91/1/2 92/1/2 94/1/2
f 92/2/2 93/2/2 95/2/2
f 94/1/2 92/1/2 95/1/2
f 95/2/2 93/2/2 96/2/2
f 97/2/2 98/2/2 99/2/2
f 99/2/2 98/2/2 100/2/2
f 101/1/2 102/1/2 105/1/2
f 105/1/2 102/1/2 106/1/2
f 103/1/2 104/1/2 107/1/2
f 107/1/2 104/1/2 108/1/2
f 109/1/2 110/1/2 112/1/2
f 112/1/2 110/1/2 113/1/2
f 111/1/2 112/1/2 114/1/2
f 114/1/2 112/1/2 115/1/2
f 116/1/2 117/1/2 118/1/2
f 118/1/2 117/1/2 119/1/2
f 120/1/2 121/1/2 123/1/2
f 121/2/2 122/2/2 124/2/2
f 123/1/2 121/1/2 124/1/2
f 124/2/2 122/2/2 125/2/2
f 126/2/2 127/2/2 130/2/2
f 130/2/2 127/2/2 131/2/2
f 128/2/2 129/2/2 132/2/2
f 132/2/2 129/2/2 133/2/2
f 134/1/2 135/1/2 136/1/2
f 136/1/2 135/1/2 140/1/2
f 140/1/2 135/1/2 141/1/2
f 137/1/2 138/1/2 142/1/2
f 142/1/2 138/1/2 143/1/2
f 139/2/2 140/2/2 145/2/2
f 145/2/2 140/2/2 146/2/2
f 143/1/2 144/1/2 147/1/2
f 144/1/2 145/1/2 147/1/2
f 147/1/2 145/1/2 148/1/2
f 149/2/2 150/2/2 152/2/2
f 152/2/2 150/2/2 153/2/2
f 151/2/2 152/2/2 155/2/2
f 152/1/2 153/1/2 156/1/2
f 155/2/2 152/2/2 156/2/2
f 153/2/2 154/2/2 157/2/2
f 156/1/2 153/1/2 157/1/2
f 157/2/2 154/2/2 158/2/2
f 155/1/2 156/1/2 159/1/2
f 156/1/2 157/1/2 159/1/2
f 157/1/2 158/1/2 159/1/2
f 159/1/2 158/1/2 160/1/2
f 155/1/2 159/1/2 161/1/2
f 161/1/2 159/1/2 162/1/2
f 159/2/2 160/2/2 163/2/2
f 163/2/2 160/2/2 164/2/2
f 162/1/2 159/1/2 165/1/2
f 159/2/2 163/2/2 166/2/2
f 165/1/2 159/1/2 166/1/2
f 166/2/2 163/2/2 167/2/2
f 176/1/3 169/1/3 168/1/3
f 177/1/3 169/1/3 176/1/3
f 178/2/3 170/2/3 169/2/3
f 178/1/3 169/1/3 177/1/3
f 179/2/3 170/2/3 178/2/3
f 182/2/3 174/2/3 173/2/3
f 183/2/3 174/2/3 182/2/3
f 184/1/3 176/1/3 175/1/3
f 185/1/3 179/1/3 178/1/3
f 185/1/3 178/1/3 177/1/3
f 186/2/3 180/2/3 179/2/3
f 186/1/3 179/1/3 185/1/3
f 187/2/3 180/2/3 186/2/3
f 188/2/3 182/2/3 181/2/3
f 189/1/3 183/1/3 182/1/3
f 189/2/3 182/2/3 188/2/3
f 190/1/3 189/1/3 188/1/3
f 191/1/3 183/1/3 189/1/3
f 191/1/3 189/1/3 190/1/3
f 192/1/3 184/1/3 175/1/3
f 192/1/3 185/1/3 184/1/3
f 192/1/3 186/1/3 185/1/3
f 192/1/3 187/1/3 186/1/3
f 193/1/3 187/1/3 192/1/3
f 194/1/3 187/1/3 193/1/3
f 195/1/3 172/1/3 171/1/3
f 196/1/3 172/1/3 195/1/3
f 197/1/3 183/1/3 191/1/3
f 198/1/3 183/1/3 197/1/3
f 199/2/3 193/2/3 192/2/3
f 200/2/3 193/2/3 199/2/3
f 201/1/3 187/1/3 194/1/3
f 202/1/3 187/1/3 201/1/3
f 203/1/3 187/1/3 202/1/3
f 204/2/3 201/2/3 200/2/3
f 205/1/3 202/1/3 201/1/3
f 205/2/3 201/2/3 204/2/3
f 206/1/3 202/1/3 205/1/3
f 211/1/3 208/1/3 207/1/3
f 212/1/3 208/1/3 211/1/3
f 214/2/3 210/2/3 209/2/3
f 215/2/3 210/2/3 214/2/3
f 221/3/3 213/3/3 212/3/3
f 222/3/3 213/3/3 221/3/3
f 223/2/3 216/2/3 215/2/3
f 224/2/3 216/2/3 223/2/3
f 225/2/3 218/2/3 217/2/3
f 226/2/3 225/2/3 217/2/3
f 227/2/3 225/2/3 226/2/3
f 228/2/3 220/2/3 219/2/3
f 229/2/3 220/2/3 228/2/3
f 233/3/3 231/3/3 230/3/3
f 234/3/3 231/3/3 233/3/3
f 236/1/3 224/1/3 223/1/3
f 237/1/3 224/1/3 236/1/3
f 238/2/3 233/2/3 232/2/3
f 239/2/3 233/2/3 238/2/3
f 240/1/3 236/1/3 235/1/3
f 241/1/3 236/1/3 240/1/3
f 242/2/4 243/2/4 246/2/4
f 242/2/4 246/2/4 247/2/4
f 247/2/4 246/2/4 248/2/4
f 244/2/4 245/2/4 249/2/4
f 249/2/4 245/2/4 250/2/4
f 251/1/4 252/1/4 259/1/4
f 259/1/4 252/1/4 260/1/4
f 253/1/4 254/1/4 261/1/4
f 261/1/4 254/1/4 262/1/4
f 257/1/4 258/1/4 265/1/4
f 262/1/4 263/1/4 266/1/4
f 266/1/4 263/1/4 267/1/4
f 264/1/4 265/1/4 268/1/4
f 265/1/4 258/1/4 269/1/4
f 268/1/4 265/1/4 269/1/4
f 268/2/4 269/2/4 270/2/4
f 269/1/4 258/1/4 271/1/4
f 270/2/4 269/2/4 271/2/4
f 271/1/4 258/1/4 272/1/4
f 255/1/4 256/1/4 275/1/4
f 275/1/4 256/1/4 276/1/4
f 271/2/4 272/2/4 277/2/4
f 277/2/4 272/2/4 278/2/4
f 273/1/4 274/1/4 282/1/4
f 282/1/4 274/1/4 283/1/4
f 279/2/4 280/2/4 284/2/4
f 284/2/4 280/2/4 285/2/4
f 281/2/4 282/2/4 286/2/4
f 286/2/4 282/2/4 287/2/4
f 288/2/4 289/2/4 292/2/4
f 289/1/4 290/1/4 293/1/4
f 292/2/4 289/2/4 293/2/4
f 293/1/4 290/1/4 294/1/4
f 291/2/4 292/2/4 296/2/4
f 292/2/4 293/2/4 296/2/4
f 296/2/4 293/2/4 297/2/4
f 297/2/4 293/2/4 298/2/4
f 294/2/4 295/2/4 299/2/4
f 299/2/4 295/2/4 300/2/4
f 296/1/4 297/1/4 302/1/4
f 300/1/4 301/1/4 303/1/4
f 296/1/4 302/1/4 304/1/4
f 304/1/4 302/1/4 305/1/4
f 303/1/4 301/1/4 308/1/4
f 308/1/4 301/1/4 309/1/4
f 304/2/4 305/2/4 310/2/4
f 305/1/4 306/1/4 311/1/4
f 310/2/4 305/2/4 311/2/4
f 311/1/4 306/1/4 312/1/4
f 307/2/4 308/2/4 314/2/4
f 314/2/4 308/2/4 315/2/4
f 311/2/4 312/2/4 316/2/4
f 312/1/4 313/1/4 317/1/4
f 316/2/4 312/2/4 317/2/4
f 313/2/4 314/2/4 318/2/4
f 317/1/4 313/1/4 318/1/4
f 318/2/4 314/2/4 319/2/4
f 320/2/4 321/2/4 323/2/4
f 323/2/4 321/2/4 324/2/4
f 322/2/4 323/2/4 326/2/4
f 323/1/4 324/1/4 327/1/4
f 326/2/4 323/2/4 327/2/4
f 324/2/4 325/2/4 328/2/4
f 327/1/4 324/1/4 328/1/4
f 328/2/4 325/2/4 329/2/4
f 326/1/4 327/1/4 330/1/4
f 327/1/4 328/1/4 330/1/4
f 328/1/4 329/1/4 330/1/4
f 330/1/4 329/1/4 331/1/4
f 331/1/4 329/1/4 332/1/4
f 332/1/4 329/1/4 333/1/4
f 331/1/4 332/1/4 334/1/4
f 334/1/4 332/1/4 335/1/4
f 338/1/5 337/1/5 336/1/5
f 339/1/5 337/1/5 338/1/5
f 343/2/5 341/2/5 340/2/5
f 344/1/5 342/1/5 341/1/5
f 344/2/5 341/2/5 343/2/5
f 345/1/5 342/1/5 344/1/5
f 349/1/5 347/1/5 346/1/5
f 350/2/5 348/2/5 347/2/5
f 350/1/5 347/1/5 349/1/5
f 351/2/5 348/2/5 350/2/5
f 356/2/5 353/2/5 352/2/5
f 357/2/5 353/2/5 356/2/5
f 358/1/5 355/1/5 354/1/5
f 359/1/5 355/1/5 358/1/5
f 360/1/5 357/1/5 356/1/5
f 361/1/5 357/1/5 360/1/5
f 362/2/5 359/2/5 358/2/5
f 363/2/5 359/2/5 362/2/5
f 368/1/5 365/1/5 364/1/5
f 369/1/5 365/1/5 368/1/5
f 370/2/5 366/2/5 365/2/5
f 370/1/5 365/1/5 369/1/5
f 371/2/5 366/2/5 370/2/5
f 373/1/5 369/1/5 368/1/5
f 373/1/5 368/1/5 367/1/5
f 374/1/5 371/1/5 370/1/5
f 375/1/5 373/1/5 367/1/5
f 375/1/5 374/1/5 373/1/5
f 376/1/5 374/1/5 375/1/5
f 377/1/5 374/1/5 376/1/5
f 378/1/5 371/1/5 374/1/5
f 378/1/5 374/1/5 377/1/5
f 379/2/5 372/2/5 371/2/5
f 379/1/5 371/1/5 378/1/5
f 380/2/5 372/2/5 379/2/5
f 381/2/5 377/2/5 376/2/5
f 382/1/5 378/1/5 377/1/5
f 382/2/5 377/2/5 381/2/5
f 383/2/5 379/2/5 378/2/5
f 383/1/5 378/1/5 382/1/5
f 384/2/5 379/2/5 383/2/5
f 389/1/5 386/1/5 385/1/5
f 390/1/5 386/1/5 389/1/5
f 391/2/5 388/2/5 387/2/5
f 392/2/5 388/2/5 391/2/5
f 397/2/5 394/2/5 393/2/5
f 398/2/5 394/2/5 397/2/5
f 402/2/5 396/2/5 395/2/5
f 403/2/5 396/2/5 402/2/5
f 404/2/5 400/2/5 399/2/5
f 405/1/5 401/1/5 400/1/5
f 405/2/5 400/2/5 404/2/5
f 406/1/5 401/1/5 405/1/5
f 411/1/5 408/1/5 407/1/5
f 412/1/5 408/1/5 411/1/5
f 413/1/5 410/1/5 409/1/5
f 414/1/5 410/1/5 413/1/5
f 419/2/5 416/2/5 415/2/5
f 420/2/5 416/2/5 419/2/5
f 421/1/5 418/1/5 417/1/5
f 422/1/5 418/1/5 421/1/5
f 423/1/6 424/1/6 425/1/6
f 425/1/6 424/1/6 426/1/6
f 423/1/6 425/1/6 427/1/6
f 426/1/6 424/1/6 428/1/6
f 423/1/6 427/1/6 429/1/6
f 427/1/6 428/1/6 429/1/6
f 428/1/6 424/1/6 430/1/6
f 429/1/6 428/1/6 430/1/6
f 431/2/6 432/2/6 434/2/6
f 432/1/6 433/1/6 435/1/6
f 434/2/6 432/2/6 435/2/6
f 435/1/6 433/1/6 436/1/6
f 434/1/6 435/1/6 437/1/6
f 436/1/6 433/1/6 438/1/6
f 438/1/6 433/1/6 439/1/6
f 434/1/6 437/1/6 440/1/6
f 437/1/6 438/1/6 440/1/6
f 438/2/6 439/2/6 441/2/6
f 440/1/6 438/1/6 441/1/6
f 441/2/6 439/2/6 442/2/6
f 443/1/6 444/1/6 447/1/6
f 447/1/6 444/1/6 448/1/6
f 445/2/6 446/2/6 449/2/6
f 449/2/6 446/2/6 450/2/6
f 451/2/6 452/2/6 455/2/6
f 455/2/6 452/2/6 456/2/6
f 453/1/6 454/1/6 457/1/6
f 457/1/6 454/1/6 458/1/6
f 459/1/6 460/1/6 463/1/6
f 463/1/6 460/1/6 464/1/6
f 461/2/6 462/2/6 467/2/6
f 467/2/6 462/2/6 468/2/6
f 464/2/6 465/2/6 469/2/6
f 469/2/6 465/2/6 470/2/6
f 466/1/6 467/1/6 471/1/6
f 471/1/6 467/1/6 472/1/6
f 473/2/6 474/2/6 477/2/6
f 474/1/6 475/1/6 478/1/6
f 477/2/6 474/2/6 478/2/6
f 478/1/6 475/1/6 479/1/6
f 476/2/6 477/2/6 481/2/6
f 481/2/6 477/2/6 482/2/6
f 479/1/6 480/1/6 483/1/6
f 483/1/6 480/1/6 484/1/6
f 481/1/6 482/1/6 485/1/6
f 485/1/6 482/1/6 486/1/6
f 483/2/6 484/2/6 489/2/6
f 489/2/6 484/2/6 490/2/6
f 486/2/6 487/2/6 491/2/6
f 491/2/6 487/2/6 492/2/6
f 488/2/6 489/2/6 494/2/6
f 494/2/6 489/2/6 495/2/6
f 492/2/6 493/2/6 496/2/6
f 493/1/6 494/1/6 497/1/6
f 496/2/6 493/2/6 497/2/6
f 497/1/6 494/1/6 498/1/6
f 499/2/6 500/2/6 502/2/6
f 500/1/6 501/1/6 503/1/6
f 502/2/6 500/2/6 503/2/6
f 502/1/6 503/1/6 504/1/6
f 503/1/6 501/1/6 505/1/6
f 504/1/6 503/1/6 505/1/6
f 505/1/6 501/1/6 506/1/6
f 506/1/6 501/1/6 507/1/6
f 505/1/6 506/1/6 508/1/6
f 508/1/6 506/1/6 509/1/6
