# MagicaVoxel @ Ephtracy

# group
o 

# material
mtllib Main Character body.mtl
usemtl palette

# normals
vn -1 0 0
vn 1 0 0
vn 0 0 1
vn 0 0 -1
vn 0 -1 0
vn 0 1 0

# texcoords
vt 0.0332031 0.5
vt 0.0605469 0.5
vt 0.634766 0.5
vt 0.845703 0.5
vt 0.958984 0.5
vt 0.990234 0.5
vt 0.994141 0.5

# verts
v 0 1.6 -0.3
v 0 1.6 -0.4
v 0 1.6 -0.5
v 0 1.6 -0.7
v 0 1.7 -0.3
v 0 1.7 -0.4
v 0 1.7 -0.5
v 0 1.7 -0.6
v 0 1.7 -0.7
v 0 1.8 -0.2
v 0 1.8 -0.3
v 0 1.8 -0.5
v 0 1.8 -0.6
v 0 1.9 -0.2
v 0 1.9 -0.3
v 0 1.9 -0.4
v 0 1.9 -0.5
v 0 2 -0.3
v 0 2 -0.4
v 0.1 1.5 -0.3
v 0.1 1.5 -0.6
v 0.1 1.6 -0.2
v 0.1 1.6 -0.3
v 0.1 1.6 -0.4
v 0.1 1.6 -0.5
v 0.1 1.6 -0.6
v 0.1 1.7 -0.1
v 0.1 1.7 -0.2
v 0.1 1.7 -0.3
v 0.1 1.7 -0.4
v 0.1 1.7 -0.5
v 0.1 1.8 -0.2
v 0.1 1.8 -0.3
v 0.1 1.8 -0.5
v 0.1 1.8 -0.6
v 0.1 1.9 -0.1
v 0.1 1.9 -0.2
v 0.1 1.9 -0.3
v 0.1 1.9 -0.4
v 0.1 1.9 -0.5
v 0.1 2 -0.2
v 0.1 2 -0.3
v 0.1 2 -0.4
v 0.1 2 -0.5
v 0.1 2 -0.6
v 0.1 2.1 -0.3
v 0.1 2.1 -0.5
v 0.2 1 -0.2
v 0.2 1 -0.5
v 0.2 1.1 -0.2
v 0.2 1.1 -0.3
v 0.2 1.1 -0.4
v 0.2 1.1 -0.5
v 0.2 1.2 -0.2
v 0.2 1.2 -0.3
v 0.2 1.2 -0.4
v 0.2 1.2 -0.5
v 0.2 1.3 -0.2
v 0.2 1.3 -0.3
v 0.2 1.3 -0.4
v 0.2 1.3 -0.5
v 0.2 1.4 -0.2
v 0.2 1.4 -0.3
v 0.2 1.4 -0.4
v 0.2 1.4 -0.5
v 0.2 1.5 -0.2
v 0.2 1.5 -0.3
v 0.2 1.5 -0.6
v 0.2 1.5 -0.7
v 0.2 1.6 -0.2
v 0.2 1.6 -0.3
v 0.2 1.8 0
v 0.2 1.8 -0.1
v 0.2 1.9 0
v 0.2 1.9 -0.1
v 0.2 1.9 -0.2
v 0.2 2 -0.1
v 0.2 2 -0.2
v 0.2 2 -0.3
v 0.2 2 -0.5
v 0.2 2 -0.6
v 0.2 2 -0.7
v 0.2 2.1 -0.2
v 0.2 2.1 -0.3
v 0.2 2.1 -0.5
v 0.2 2.1 -0.6
v 0.2 2.2 -0.3
v 0.2 2.2 -0.5
v 0.3 1.4 -0.3
v 0.3 1.4 -0.4
v 0.3 1.5 -0.3
v 0.3 1.5 -0.4
v 0.3 1.6 -0.7
v 0.3 1.6 -0.8
v 0.3 1.9 -0.7
v 0.3 1.9 -0.8
v 0.4 1.7 -0.1
v 0.4 1.7 -0.2
v 0.4 1.8 -0.1
v 0.4 1.8 -0.2
v 0.6 1.7 -0.1
v 0.6 1.7 -0.2
v 0.6 1.8 -0.1
v 0.6 1.8 -0.2
v 0.7 1.6 -0.6
v 0.7 1.6 -0.7
v 0.7 1.7 -0.6
v 0.7 1.7 -0.7
v 0.1 1.6 -0.6
v 0.1 1.6 -0.7
v 0.1 1.7 -0.6
v 0.1 1.7 -0.7
v 0.2 1.7 -0.1
v 0.2 1.7 -0.2
v 0.2 1.8 -0.1
v 0.2 1.8 -0.2
v 0.5 1.4 -0.3
v 0.5 1.4 -0.4
v 0.5 1.5 -0.3
v 0.5 1.5 -0.4
v 0.5 1.6 -0.7
v 0.5 1.6 -0.8
v 0.5 1.7 -0.1
v 0.5 1.7 -0.2
v 0.5 1.8 -0.1
v 0.5 1.8 -0.2
v 0.5 1.9 -0.7
v 0.5 1.9 -0.8
v 0.6 1 -0.2
v 0.6 1 -0.3
v 0.6 1 -0.4
v 0.6 1 -0.5
v 0.6 1.1 -0.2
v 0.6 1.1 -0.3
v 0.6 1.1 -0.4
v 0.6 1.1 -0.5
v 0.6 1.2 -0.2
v 0.6 1.2 -0.3
v 0.6 1.2 -0.4
v 0.6 1.2 -0.5
v 0.6 1.3 -0.2
v 0.6 1.3 -0.3
v 0.6 1.3 -0.4
v 0.6 1.3 -0.5
v 0.6 1.4 -0.2
v 0.6 1.4 -0.3
v 0.6 1.4 -0.4
v 0.6 1.4 -0.5
v 0.6 1.5 -0.2
v 0.6 1.5 -0.3
v 0.6 1.5 -0.6
v 0.6 1.5 -0.7
v 0.6 1.6 -0.2
v 0.6 1.6 -0.3
v 0.6 1.8 0
v 0.6 1.8 -0.1
v 0.6 1.9 0
v 0.6 1.9 -0.1
v 0.6 1.9 -0.2
v 0.6 2 -0.1
v 0.6 2 -0.2
v 0.6 2 -0.3
v 0.6 2 -0.5
v 0.6 2 -0.6
v 0.6 2 -0.7
v 0.6 2.1 -0.2
v 0.6 2.1 -0.3
v 0.6 2.1 -0.5
v 0.6 2.1 -0.6
v 0.6 2.2 -0.3
v 0.6 2.2 -0.5
v 0.7 1.5 -0.3
v 0.7 1.5 -0.6
v 0.7 1.6 -0.2
v 0.7 1.6 -0.3
v 0.7 1.6 -0.4
v 0.7 1.6 -0.5
v 0.7 1.6 -0.6
v 0.7 1.7 -0.1
v 0.7 1.7 -0.2
v 0.7 1.7 -0.3
v 0.7 1.7 -0.4
v 0.7 1.7 -0.5
v 0.7 1.8 -0.2
v 0.7 1.8 -0.3
v 0.7 1.8 -0.5
v 0.7 1.8 -0.6
v 0.7 1.9 -0.1
v 0.7 1.9 -0.2
v 0.7 1.9 -0.3
v 0.7 2 -0.2
v 0.7 2 -0.3
v 0.7 2 -0.5
v 0.7 2 -0.6
v 0.7 2.1 -0.3
v 0.7 2.1 -0.5
v 0.8 1.6 -0.3
v 0.8 1.6 -0.4
v 0.8 1.6 -0.5
v 0.8 1.6 -0.7
v 0.8 1.7 -0.3
v 0.8 1.7 -0.4
v 0.8 1.7 -0.5
v 0.8 1.7 -0.6
v 0.8 1.7 -0.7
v 0.8 1.8 -0.2
v 0.8 1.8 -0.3
v 0.8 1.8 -0.5
v 0.8 1.8 -0.6
v 0.8 1.9 -0.2
v 0.8 1.9 -0.3
v 0.8 2 -0.3
v 0.8 2 -0.5
v 0.2 1.8 0
v 0.2 1.9 0
v 0.6 1.8 0
v 0.6 1.9 0
v 0.1 1.7 -0.1
v 0.1 1.9 -0.1
v 0.2 1.7 -0.1
v 0.2 1.8 -0.1
v 0.2 1.9 -0.1
v 0.2 2 -0.1
v 0.4 1.7 -0.1
v 0.4 1.8 -0.1
v 0.5 1.7 -0.1
v 0.5 1.8 -0.1
v 0.6 1.7 -0.1
v 0.6 1.8 -0.1
v 0.6 1.9 -0.1
v 0.6 2 -0.1
v 0.7 1.7 -0.1
v 0.7 1.9 -0.1
v 0 1.8 -0.2
v 0 1.9 -0.2
v 0.1 1.6 -0.2
v 0.1 1.7 -0.2
v 0.1 1.8 -0.2
v 0.1 1.9 -0.2
v 0.1 2 -0.2
v 0.2 1 -0.2
v 0.2 1.1 -0.2
v 0.2 1.2 -0.2
v 0.2 1.3 -0.2
v 0.2 1.4 -0.2
v 0.2 1.5 -0.2
v 0.2 1.6 -0.2
v 0.2 1.7 -0.2
v 0.2 1.8 -0.2
v 0.2 1.9 -0.2
v 0.2 2 -0.2
v 0.2 2.1 -0.2
v 0.3 1 -0.2
v 0.3 1.1 -0.2
v 0.3 1.2 -0.2
v 0.3 1.3 -0.2
v 0.3 1.4 -0.2
v 0.3 1.6 -0.2
v 0.3 1.7 -0.2
v 0.4 1.7 -0.2
v 0.4 1.8 -0.2
v 0.5 1 -0.2
v 0.5 1.1 -0.2
v 0.5 1.2 -0.2
v 0.5 1.3 -0.2
v 0.5 1.4 -0.2
v 0.5 1.6 -0.2
v 0.5 1.7 -0.2
v 0.5 1.8 -0.2
v 0.6 1 -0.2
v 0.6 1.1 -0.2
v 0.6 1.2 -0.2
v 0.6 1.3 -0.2
v 0.6 1.4 -0.2
v 0.6 1.5 -0.2
v 0.6 1.6 -0.2
v 0.6 1.7 -0.2
v 0.6 1.8 -0.2
v 0.6 1.9 -0.2
v 0.6 2 -0.2
v 0.6 2.1 -0.2
v 0.7 1.6 -0.2
v 0.7 1.7 -0.2
v 0.7 1.8 -0.2
v 0.7 1.9 -0.2
v 0.7 2 -0.2
v 0.8 1.8 -0.2
v 0.8 1.9 -0.2
v 0 1.6 -0.3
v 0 1.7 -0.3
v 0 1.8 -0.3
v 0 1.9 -0.3
v 0 2 -0.3
v 0.1 1.5 -0.3
v 0.1 1.6 -0.3
v 0.1 1.7 -0.3
v 0.1 1.8 -0.3
v 0.1 1.9 -0.3
v 0.1 2 -0.3
v 0.1 2.1 -0.3
v 0.2 1.5 -0.3
v 0.2 1.6 -0.3
v 0.2 2 -0.3
v 0.2 2.1 -0.3
v 0.2 2.2 -0.3
v 0.3 1.4 -0.3
v 0.3 1.5 -0.3
v 0.5 1.4 -0.3
v 0.5 1.5 -0.3
v 0.6 1.5 -0.3
v 0.6 1.6 -0.3
v 0.6 2 -0.3
v 0.6 2.1 -0.3
v 0.6 2.2 -0.3
v 0.7 1.5 -0.3
v 0.7 1.6 -0.3
v 0.7 1.7 -0.3
v 0.7 1.8 -0.3
v 0.7 1.9 -0.3
v 0.7 2 -0.3
v 0.7 2.1 -0.3
v 0.8 1.6 -0.3
v 0.8 1.7 -0.3
v 0.8 1.8 -0.3
v 0.8 1.9 -0.3
v 0.8 2 -0.3
v 0 1.6 -0.5
v 0 1.7 -0.5
v 0.1 1.6 -0.5
v 0.1 1.7 -0.5
v 0.7 1.6 -0.5
v 0.7 1.7 -0.5
v 0.8 1.6 -0.5
v 0.8 1.7 -0.5
v 0 1.6 -0.4
v 0 1.7 -0.4
v 0 1.9 -0.4
v 0 2 -0.4
v 0.1 1.6 -0.4
v 0.1 1.7 -0.4
v 0.1 1.9 -0.4
v 0.1 2 -0.4
v 0.3 1.4 -0.4
v 0.3 1.5 -0.4
v 0.4 1.4 -0.4
v 0.5 1.4 -0.4
v 0.5 1.5 -0.4
v 0.7 1.6 -0.4
v 0.7 1.7 -0.4
v 0.8 1.6 -0.4
v 0.8 1.7 -0.4
v 0 1.8 -0.5
v 0 1.9 -0.5
v 0.1 1.8 -0.5
v 0.1 1.9 -0.5
v 0.1 2 -0.5
v 0.1 2.1 -0.5
v 0.2 1 -0.5
v 0.2 1.1 -0.5
v 0.2 1.2 -0.5
v 0.2 1.3 -0.5
v 0.2 1.4 -0.5
v 0.2 2 -0.5
v 0.2 2.1 -0.5
v 0.2 2.2 -0.5
v 0.3 1 -0.5
v 0.3 1.1 -0.5
v 0.3 1.2 -0.5
v 0.3 1.3 -0.5
v 0.3 1.4 -0.5
v 0.4 1 -0.5
v 0.4 1.1 -0.5
v 0.4 1.2 -0.5
v 0.4 1.3 -0.5
v 0.4 1.4 -0.5
v 0.5 1 -0.5
v 0.5 1.1 -0.5
v 0.5 1.2 -0.5
v 0.5 1.3 -0.5
v 0.5 1.4 -0.5
v 0.6 1 -0.5
v 0.6 1.1 -0.5
v 0.6 1.2 -0.5
v 0.6 1.3 -0.5
v 0.6 1.4 -0.5
v 0.6 2 -0.5
v 0.6 2.1 -0.5
v 0.6 2.2 -0.5
v 0.7 1.8 -0.5
v 0.7 2 -0.5
v 0.7 2.1 -0.5
v 0.8 1.8 -0.5
v 0.8 2 -0.5
v 0 1.7 -0.6
v 0 1.8 -0.6
v 0.1 1.5 -0.6
v 0.1 1.6 -0.6
v 0.1 1.7 -0.6
v 0.1 1.8 -0.6
v 0.1 2 -0.6
v 0.2 1.5 -0.6
v 0.2 2 -0.6
v 0.2 2.1 -0.6
v 0.6 1.5 -0.6
v 0.6 2 -0.6
v 0.6 2.1 -0.6
v 0.7 1.5 -0.6
v 0.7 1.6 -0.6
v 0.7 1.7 -0.6
v 0.7 1.8 -0.6
v 0.7 2 -0.6
v 0.8 1.7 -0.6
v 0.8 1.8 -0.6
v 0 1.6 -0.7
v 0 1.7 -0.7
v 0.1 1.6 -0.7
v 0.1 1.7 -0.7
v 0.2 1.5 -0.7
v 0.2 2 -0.7
v 0.3 1.6 -0.7
v 0.3 1.9 -0.7
v 0.5 1.6 -0.7
v 0.5 1.9 -0.7
v 0.6 1.5 -0.7
v 0.6 2 -0.7
v 0.7 1.6 -0.7
v 0.7 1.7 -0.7
v 0.8 1.6 -0.7
v 0.8 1.7 -0.7
v 0.3 1.6 -0.8
v 0.3 1.9 -0.8
v 0.5 1.6 -0.8
v 0.5 1.9 -0.8
v 0.2 1 -0.2
v 0.3 1 -0.2
v 0.5 1 -0.2
v 0.6 1 -0.2
v 0.3 1 -0.3
v 0.5 1 -0.3
v 0.6 1 -0.3
v 0.4 1 -0.4
v 0.5 1 -0.4
v 0.6 1 -0.4
v 0.2 1 -0.5
v 0.3 1 -0.5
v 0.4 1 -0.5
v 0.5 1 -0.5
v 0.6 1 -0.5
v 0.2 1.5 -0.2
v 0.6 1.5 -0.2
v 0.1 1.5 -0.3
v 0.2 1.5 -0.3
v 0.3 1.5 -0.3
v 0.5 1.5 -0.3
v 0.6 1.5 -0.3
v 0.7 1.5 -0.3
v 0.3 1.5 -0.4
v 0.5 1.5 -0.4
v 0.1 1.5 -0.6
v 0.2 1.5 -0.6
v 0.6 1.5 -0.6
v 0.7 1.5 -0.6
v 0.2 1.5 -0.7
v 0.6 1.5 -0.7
v 0.1 1.6 -0.2
v 0.2 1.6 -0.2
v 0.6 1.6 -0.2
v 0.7 1.6 -0.2
v 0 1.6 -0.3
v 0.1 1.6 -0.3
v 0.2 1.6 -0.3
v 0.6 1.6 -0.3
v 0.7 1.6 -0.3
v 0.8 1.6 -0.3
v 0 1.6 -0.4
v 0.1 1.6 -0.4
v 0.7 1.6 -0.4
v 0.8 1.6 -0.4
v 0 1.6 -0.5
v 0.1 1.6 -0.5
v 0.7 1.6 -0.5
v 0.8 1.6 -0.5
v 0.1 1.6 -0.6
v 0.7 1.6 -0.6
v 0 1.6 -0.7
v 0.1 1.6 -0.7
v 0.3 1.6 -0.7
v 0.5 1.6 -0.7
v 0.7 1.6 -0.7
v 0.8 1.6 -0.7
v 0.3 1.6 -0.8
v 0.5 1.6 -0.8
v 0.1 1.7 -0.1
v 0.2 1.7 -0.1
v 0.4 1.7 -0.1
v 0.5 1.7 -0.1
v 0.6 1.7 -0.1
v 0.7 1.7 -0.1
v 0.1 1.7 -0.2
v 0.2 1.7 -0.2
v 0.4 1.7 -0.2
v 0.5 1.7 -0.2
v 0.6 1.7 -0.2
v 0.7 1.7 -0.2
v 0 1.7 -0.4
v 0.1 1.7 -0.4
v 0.7 1.7 -0.4
v 0.8 1.7 -0.4
v 0 1.7 -0.5
v 0.1 1.7 -0.5
v 0.7 1.7 -0.5
v 0.8 1.7 -0.5
v 0.2 1.8 0
v 0.6 1.8 0
v 0.2 1.8 -0.1
v 0.4 1.8 -0.1
v 0.5 1.8 -0.1
v 0.6 1.8 -0.1
v 0 1.8 -0.2
v 0.1 1.8 -0.2
v 0.2 1.8 -0.2
v 0.4 1.8 -0.2
v 0.5 1.8 -0.2
v 0.6 1.8 -0.2
v 0.7 1.8 -0.2
v 0.8 1.8 -0.2
v 0 1.8 -0.3
v 0.1 1.8 -0.3
v 0.7 1.8 -0.3
v 0.8 1.8 -0.3
v 0.2 1.4 -0.2
v 0.3 1.4 -0.2
v 0.5 1.4 -0.2
v 0.6 1.4 -0.2
v 0.2 1.4 -0.3
v 0.3 1.4 -0.3
v 0.5 1.4 -0.3
v 0.6 1.4 -0.3
v 0.2 1.4 -0.4
v 0.3 1.4 -0.4
v 0.4 1.4 -0.4
v 0.5 1.4 -0.4
v 0.6 1.4 -0.4
v 0.2 1.4 -0.5
v 0.3 1.4 -0.5
v 0.4 1.4 -0.5
v 0.5 1.4 -0.5
v 0.6 1.4 -0.5
v 0 1.7 -0.6
v 0.1 1.7 -0.6
v 0.7 1.7 -0.6
v 0.8 1.7 -0.6
v 0 1.7 -0.7
v 0.1 1.7 -0.7
v 0.7 1.7 -0.7
v 0.8 1.7 -0.7
v 0 1.8 -0.5
v 0.1 1.8 -0.5
v 0.7 1.8 -0.5
v 0.8 1.8 -0.5
v 0 1.8 -0.6
v 0.1 1.8 -0.6
v 0.7 1.8 -0.6
v 0.8 1.8 -0.6
v 0.2 1.9 0
v 0.6 1.9 0
v 0.1 1.9 -0.1
v 0.2 1.9 -0.1
v 0.6 1.9 -0.1
v 0.7 1.9 -0.1
v 0 1.9 -0.2
v 0.1 1.9 -0.2
v 0.2 1.9 -0.2
v 0.6 1.9 -0.2
v 0.7 1.9 -0.2
v 0.8 1.9 -0.2
v 0 1.9 -0.3
v 0.1 1.9 -0.3
v 0.7 1.9 -0.3
v 0.8 1.9 -0.3
v 0 1.9 -0.4
v 0.1 1.9 -0.4
v 0 1.9 -0.5
v 0.1 1.9 -0.5
v 0.3 1.9 -0.7
v 0.5 1.9 -0.7
v 0.3 1.9 -0.8
v 0.5 1.9 -0.8
v 0.2 2 -0.1
v 0.6 2 -0.1
v 0.1 2 -0.2
v 0.2 2 -0.2
v 0.6 2 -0.2
v 0.7 2 -0.2
v 0 2 -0.3
v 0.1 2 -0.3
v 0.2 2 -0.3
v 0.6 2 -0.3
v 0.7 2 -0.3
v 0.8 2 -0.3
v 0 2 -0.4
v 0.1 2 -0.4
v 0.1 2 -0.5
v 0.2 2 -0.5
v 0.6 2 -0.5
v 0.7 2 -0.5
v 0.8 2 -0.5
v 0.1 2 -0.6
v 0.2 2 -0.6
v 0.6 2 -0.6
v 0.7 2 -0.6
v 0.2 2 -0.7
v 0.6 2 -0.7
v 0.2 2.1 -0.2
v 0.6 2.1 -0.2
v 0.1 2.1 -0.3
v 0.2 2.1 -0.3
v 0.6 2.1 -0.3
v 0.7 2.1 -0.3
v 0.1 2.1 -0.5
v 0.2 2.1 -0.5
v 0.6 2.1 -0.5
v 0.7 2.1 -0.5
v 0.2 2.1 -0.6
v 0.6 2.1 -0.6
v 0.2 2.2 -0.3
v 0.6 2.2 -0.3
v 0.2 2.2 -0.5
v 0.6 2.2 -0.5

# faces
f 5/2/1 2/2/1 1/2/1
f 6/2/1 2/2/1 5/2/1
f 7/6/1 4/6/1 3/6/1
f 8/6/1 4/6/1 7/6/1
f 9/6/1 4/6/1 8/6/1
f 11/6/1 6/6/1 5/6/1
f 11/6/1 7/6/1 6/6/1
f 11/6/1 8/6/1 7/6/1
f 12/6/1 8/6/1 11/6/1
f 13/6/1 8/6/1 12/6/1
f 14/6/1 11/6/1 10/6/1
f 14/6/1 12/6/1 11/6/1
f 15/6/1 12/6/1 14/6/1
f 16/6/1 12/6/1 15/6/1
f 17/6/1 12/6/1 16/6/1
f 18/6/1 16/6/1 15/6/1
f 19/6/1 16/6/1 18/6/1
f 23/6/1 21/6/1 20/6/1
f 24/6/1 21/6/1 23/6/1
f 25/6/1 21/6/1 24/6/1
f 26/6/1 21/6/1 25/6/1
f 28/6/1 23/6/1 22/6/1
f 29/6/1 23/6/1 28/6/1
f 30/6/1 25/6/1 24/6/1
f 31/6/1 25/6/1 30/6/1
f 32/6/1 29/6/1 28/6/1
f 32/6/1 28/6/1 27/6/1
f 33/6/1 29/6/1 32/6/1
f 36/6/1 32/6/1 27/6/1
f 37/6/1 32/6/1 36/6/1
f 40/6/1 35/6/1 34/6/1
f 41/6/1 38/6/1 37/6/1
f 42/6/1 38/6/1 41/6/1
f 43/6/1 40/6/1 39/6/1
f 44/6/1 35/6/1 40/6/1
f 44/6/1 40/6/1 43/6/1
f 45/6/1 35/6/1 44/6/1
f 46/6/1 43/6/1 42/6/1
f 46/6/1 44/6/1 43/6/1
f 47/6/1 44/6/1 46/6/1
f 50/4/1 49/4/1 48/4/1
f 51/4/1 49/4/1 50/4/1
f 52/4/1 49/4/1 51/4/1
f 53/4/1 49/4/1 52/4/1
f 54/6/1 51/6/1 50/6/1
f 55/4/1 52/4/1 51/4/1
f 55/6/1 51/6/1 54/6/1
f 56/6/1 53/6/1 52/6/1
f 56/4/1 52/4/1 55/4/1
f 57/6/1 53/6/1 56/6/1
f 58/4/1 55/4/1 54/4/1
f 58/4/1 56/4/1 55/4/1
f 58/4/1 57/4/1 56/4/1
f 59/4/1 57/4/1 58/4/1
f 60/4/1 57/4/1 59/4/1
f 61/4/1 57/4/1 60/4/1
f 62/6/1 59/6/1 58/6/1
f 63/4/1 60/4/1 59/4/1
f 63/6/1 59/6/1 62/6/1
f 64/6/1 61/6/1 60/6/1
f 64/4/1 60/4/1 63/4/1
f 65/6/1 61/6/1 64/6/1
f 70/1/1 67/1/1 66/1/1
f 71/1/1 67/1/1 70/1/1
f 74/6/1 73/6/1 72/6/1
f 75/6/1 73/6/1 74/6/1
f 77/6/1 76/6/1 75/6/1
f 78/6/1 76/6/1 77/6/1
f 81/6/1 69/6/1 68/6/1
f 82/6/1 69/6/1 81/6/1
f 83/6/1 79/6/1 78/6/1
f 84/6/1 79/6/1 83/6/1
f 85/6/1 81/6/1 80/6/1
f 86/6/1 81/6/1 85/6/1
f 87/6/1 85/6/1 84/6/1
f 88/6/1 85/6/1 87/6/1
f 91/2/1 90/2/1 89/2/1
f 92/2/1 90/2/1 91/2/1
f 95/6/1 94/6/1 93/6/1
f 96/6/1 94/6/1 95/6/1
f 99/6/1 98/6/1 97/6/1
f 100/6/1 98/6/1 99/6/1
f 103/6/1 102/6/1 101/6/1
f 104/6/1 102/6/1 103/6/1
f 107/6/1 106/6/1 105/6/1
f 108/6/1 106/6/1 107/6/1
f 109/6/2 110/6/2 111/6/2
f 111/6/2 110/6/2 112/6/2
f 113/6/2 114/6/2 115/6/2
f 115/6/2 114/6/2 116/6/2
f 117/2/2 118/2/2 119/2/2
f 119/2/2 118/2/2 120/2/2
f 123/6/2 124/6/2 125/6/2
f 125/6/2 124/6/2 126/6/2
f 121/6/2 122/6/2 127/6/2
f 127/6/2 122/6/2 128/6/2
f 129/6/2 130/6/2 133/6/2
f 130/4/2 131/4/2 134/4/2
f 133/6/2 130/6/2 134/6/2
f 131/6/2 132/6/2 135/6/2
f 134/4/2 131/4/2 135/4/2
f 135/6/2 132/6/2 136/6/2
f 133/4/2 134/4/2 137/4/2
f 134/4/2 135/4/2 137/4/2
f 135/4/2 136/4/2 137/4/2
f 137/4/2 136/4/2 138/4/2
f 138/4/2 136/4/2 139/4/2
f 139/4/2 136/4/2 140/4/2
f 137/6/2 138/6/2 141/6/2
f 138/4/2 139/4/2 142/4/2
f 141/6/2 138/6/2 142/6/2
f 139/6/2 140/6/2 143/6/2
f 142/4/2 139/4/2 143/4/2
f 143/6/2 140/6/2 144/6/2
f 141/4/2 142/4/2 145/4/2
f 142/6/2 143/6/2 146/6/2
f 145/4/2 142/4/2 146/4/2
f 143/4/2 144/4/2 147/4/2
f 146/6/2 143/6/2 147/6/2
f 147/4/2 144/4/2 148/4/2
f 149/1/2 150/1/2 153/1/2
f 153/1/2 150/1/2 154/1/2
f 155/6/2 156/6/2 157/6/2
f 157/6/2 156/6/2 158/6/2
f 158/6/2 159/6/2 160/6/2
f 160/6/2 159/6/2 161/6/2
f 151/6/2 152/6/2 164/6/2
f 164/6/2 152/6/2 165/6/2
f 161/6/2 162/6/2 166/6/2
f 166/6/2 162/6/2 167/6/2
f 163/6/2 164/6/2 168/6/2
f 168/6/2 164/6/2 169/6/2
f 167/6/2 168/6/2 170/6/2
f 170/6/2 168/6/2 171/6/2
f 172/6/2 173/6/2 175/6/2
f 175/6/2 173/6/2 176/6/2
f 176/6/2 173/6/2 177/6/2
f 177/6/2 173/6/2 178/6/2
f 174/6/2 175/6/2 180/6/2
f 180/6/2 175/6/2 181/6/2
f 176/6/2 177/6/2 182/6/2
f 182/6/2 177/6/2 183/6/2
f 180/6/2 181/6/2 184/6/2
f 179/6/2 180/6/2 184/6/2
f 184/6/2 181/6/2 185/6/2
f 179/6/2 184/6/2 188/6/2
f 188/6/2 184/6/2 189/6/2
f 189/6/2 190/6/2 191/6/2
f 191/6/2 190/6/2 192/6/2
f 186/6/2 187/6/2 193/6/2
f 193/6/2 187/6/2 194/6/2
f 192/6/2 193/6/2 195/6/2
f 195/6/2 193/6/2 196/6/2
f 197/2/2 198/2/2 201/2/2
f 201/2/2 198/2/2 202/2/2
f 199/6/2 200/6/2 203/6/2
f 203/6/2 200/6/2 204/6/2
f 204/6/2 200/6/2 205/6/2
f 201/6/2 202/6/2 207/6/2
f 202/6/2 203/6/2 207/6/2
f 203/6/2 204/6/2 207/6/2
f 207/6/2 204/6/2 208/6/2
f 208/6/2 204/6/2 209/6/2
f 206/6/2 207/6/2 210/6/2
f 207/6/2 208/6/2 210/6/2
f 210/6/2 208/6/2 211/6/2
f 211/6/2 208/6/2 212/6/2
f 212/6/2 208/6/2 213/6/2
f 216/6/3 215/6/3 214/6/3
f 217/6/3 215/6/3 216/6/3
f 220/6/3 219/6/3 218/6/3
f 221/6/3 219/6/3 220/6/3
f 222/6/3 219/6/3 221/6/3
f 226/6/3 225/6/3 224/6/3
f 227/6/3 225/6/3 226/6/3
f 230/6/3 223/6/3 222/6/3
f 231/6/3 223/6/3 230/6/3
f 232/6/3 229/6/3 228/6/3
f 232/6/3 230/6/3 229/6/3
f 233/6/3 230/6/3 232/6/3
f 238/6/3 235/6/3 234/6/3
f 239/6/3 235/6/3 238/6/3
f 247/6/3 237/6/3 236/6/3
f 248/6/3 237/6/3 247/6/3
f 250/6/3 240/6/3 239/6/3
f 251/6/3 240/6/3 250/6/3
f 253/4/3 242/4/3 241/4/3
f 254/6/3 243/6/3 242/6/3
f 254/4/3 242/4/3 253/4/3
f 255/4/3 244/4/3 243/4/3
f 255/6/3 243/6/3 254/6/3
f 256/6/3 245/6/3 244/6/3
f 256/4/3 244/4/3 255/4/3
f 257/6/3 245/6/3 256/6/3
f 258/1/3 247/1/3 246/1/3
f 258/7/3 248/7/3 247/7/3
f 259/6/3 249/6/3 248/6/3
f 259/7/3 248/7/3 258/7/3
f 260/1/3 259/1/3 258/1/3
f 260/6/3 249/6/3 259/6/3
f 261/6/3 249/6/3 260/6/3
f 262/5/3 255/5/3 254/5/3
f 262/5/3 254/5/3 253/5/3
f 262/5/3 257/5/3 256/5/3
f 262/5/3 256/5/3 255/5/3
f 263/5/3 257/5/3 262/5/3
f 264/5/3 257/5/3 263/5/3
f 265/5/3 257/5/3 264/5/3
f 266/5/3 257/5/3 265/5/3
f 267/1/3 258/1/3 246/1/3
f 267/1/3 260/1/3 258/1/3
f 268/1/3 260/1/3 267/1/3
f 270/6/3 263/6/3 262/6/3
f 271/4/3 264/4/3 263/4/3
f 271/6/3 263/6/3 270/6/3
f 272/6/3 265/6/3 264/6/3
f 272/4/3 264/4/3 271/4/3
f 273/4/3 266/4/3 265/4/3
f 273/6/3 265/6/3 272/6/3
f 274/4/3 266/4/3 273/4/3
f 275/1/3 267/1/3 246/1/3
f 276/7/3 268/7/3 267/7/3
f 276/1/3 267/1/3 275/1/3
f 277/6/3 269/6/3 268/6/3
f 277/7/3 268/7/3 276/7/3
f 278/6/3 269/6/3 277/6/3
f 280/6/3 252/6/3 251/6/3
f 281/6/3 252/6/3 280/6/3
f 282/6/3 277/6/3 276/6/3
f 283/6/3 277/6/3 282/6/3
f 285/6/3 280/6/3 279/6/3
f 286/6/3 280/6/3 285/6/3
f 287/6/3 285/6/3 284/6/3
f 288/6/3 285/6/3 287/6/3
f 295/2/3 290/2/3 289/2/3
f 296/6/3 291/6/3 290/6/3
f 296/2/3 290/2/3 295/2/3
f 297/6/3 291/6/3 296/6/3
f 298/6/3 293/6/3 292/6/3
f 299/6/3 293/6/3 298/6/3
f 301/6/3 295/6/3 294/6/3
f 302/6/3 295/6/3 301/6/3
f 303/6/3 300/6/3 299/6/3
f 304/6/3 300/6/3 303/6/3
f 308/2/3 307/2/3 306/2/3
f 309/2/3 307/2/3 308/2/3
f 313/6/3 305/6/3 304/6/3
f 314/6/3 305/6/3 313/6/3
f 315/6/3 311/6/3 310/6/3
f 316/6/3 311/6/3 315/6/3
f 320/6/3 313/6/3 312/6/3
f 321/6/3 313/6/3 320/6/3
f 322/2/3 317/2/3 316/2/3
f 323/6/3 318/6/3 317/6/3
f 323/2/3 317/2/3 322/2/3
f 324/6/3 318/6/3 323/6/3
f 325/6/3 320/6/3 319/6/3
f 326/6/3 320/6/3 325/6/3
f 329/6/3 328/6/3 327/6/3
f 330/6/3 328/6/3 329/6/3
f 333/6/3 332/6/3 331/6/3
f 334/6/3 332/6/3 333/6/3
f 335/2/4 336/2/4 339/2/4
f 339/2/4 336/2/4 340/2/4
f 337/6/4 338/6/4 341/6/4
f 341/6/4 338/6/4 342/6/4
f 343/2/4 344/2/4 345/2/4
f 345/2/4 344/2/4 346/2/4
f 346/2/4 344/2/4 347/2/4
f 348/2/4 349/2/4 350/2/4
f 350/2/4 349/2/4 351/2/4
f 352/6/4 353/6/4 354/6/4
f 354/6/4 353/6/4 355/6/4
f 356/6/4 357/6/4 363/6/4
f 363/6/4 357/6/4 364/6/4
f 358/4/4 359/4/4 366/4/4
f 359/6/4 360/6/4 367/6/4
f 366/4/4 359/4/4 367/4/4
f 360/4/4 361/4/4 368/4/4
f 367/6/4 360/6/4 368/6/4
f 361/6/4 362/6/4 369/6/4
f 368/4/4 361/4/4 369/4/4
f 369/6/4 362/6/4 370/6/4
f 366/6/4 367/6/4 371/6/4
f 367/4/4 368/4/4 372/4/4
f 371/6/4 367/6/4 372/6/4
f 368/6/4 369/6/4 373/6/4
f 372/4/4 368/4/4 373/4/4
f 369/4/4 370/4/4 374/4/4
f 373/6/4 369/6/4 374/6/4
f 374/4/4 370/4/4 375/4/4
f 371/4/4 372/4/4 376/4/4
f 372/6/4 373/6/4 377/6/4
f 376/4/4 372/4/4 377/4/4
f 373/4/4 374/4/4 378/4/4
f 377/6/4 373/6/4 378/6/4
f 374/6/4 375/6/4 379/6/4
f 378/4/4 374/4/4 379/4/4
f 379/6/4 375/6/4 380/6/4
f 376/6/4 377/6/4 381/6/4
f 377/4/4 378/4/4 382/4/4
f 381/6/4 377/6/4 382/6/4
f 378/6/4 379/6/4 383/6/4
f 382/4/4 378/4/4 383/4/4
f 379/4/4 380/4/4 384/4/4
f 383/6/4 379/6/4 384/6/4
f 384/4/4 380/4/4 385/4/4
f 364/6/4 365/6/4 387/6/4
f 387/6/4 365/6/4 388/6/4
f 386/6/4 387/6/4 390/6/4
f 390/6/4 387/6/4 391/6/4
f 389/6/4 390/6/4 392/6/4
f 392/6/4 390/6/4 393/6/4
f 394/6/4 395/6/4 398/6/4
f 398/6/4 395/6/4 399/6/4
f 396/6/4 397/6/4 401/6/4
f 399/6/4 400/6/4 401/6/4
f 398/6/4 399/6/4 401/6/4
f 397/6/4 398/6/4 401/6/4
f 401/6/4 400/6/4 402/6/4
f 402/6/4 403/6/4 405/6/4
f 405/6/4 403/6/4 406/6/4
f 404/6/4 405/6/4 407/6/4
f 407/6/4 405/6/4 408/6/4
f 408/6/4 405/6/4 409/6/4
f 409/6/4 405/6/4 410/6/4
f 410/6/4 405/6/4 411/6/4
f 409/6/4 410/6/4 412/6/4
f 412/6/4 410/6/4 413/6/4
f 414/6/4 415/6/4 416/6/4
f 416/6/4 415/6/4 417/6/4
f 418/6/4 419/6/4 420/6/4
f 420/6/4 419/6/4 421/6/4
f 418/6/4 420/6/4 422/6/4
f 421/6/4 419/6/4 423/6/4
f 418/6/4 422/6/4 424/6/4
f 422/6/4 423/6/4 424/6/4
f 423/6/4 419/6/4 425/6/4
f 424/6/4 423/6/4 425/6/4
f 426/6/4 427/6/4 428/6/4
f 428/6/4 427/6/4 429/6/4
f 430/6/4 431/6/4 432/6/4
f 432/6/4 431/6/4 433/6/4
f 438/4/5 435/4/5 434/4/5
f 438/5/5 436/5/5 435/5/5
f 439/6/5 437/6/5 436/6/5
f 439/5/5 436/5/5 438/5/5
f 440/6/5 437/6/5 439/6/5
f 441/6/5 439/6/5 438/6/5
f 442/4/5 440/4/5 439/4/5
f 442/6/5 439/6/5 441/6/5
f 443/4/5 440/4/5 442/4/5
f 444/4/5 438/4/5 434/4/5
f 445/6/5 441/6/5 438/6/5
f 445/4/5 438/4/5 444/4/5
f 446/4/5 442/4/5 441/4/5
f 446/6/5 441/6/5 445/6/5
f 447/6/5 443/6/5 442/6/5
f 447/4/5 442/4/5 446/4/5
f 448/6/5 443/6/5 447/6/5
f 452/1/5 450/1/5 449/1/5
f 453/1/5 450/1/5 452/1/5
f 454/1/5 450/1/5 453/1/5
f 455/1/5 450/1/5 454/1/5
f 457/6/5 452/6/5 451/6/5
f 457/6/5 453/6/5 452/6/5
f 458/6/5 456/6/5 455/6/5
f 458/6/5 455/6/5 454/6/5
f 459/6/5 457/6/5 451/6/5
f 459/6/5 458/6/5 457/6/5
f 460/6/5 458/6/5 459/6/5
f 461/6/5 456/6/5 458/6/5
f 461/6/5 458/6/5 460/6/5
f 462/6/5 456/6/5 461/6/5
f 463/6/5 461/6/5 460/6/5
f 464/6/5 461/6/5 463/6/5
f 470/6/5 466/6/5 465/6/5
f 471/6/5 466/6/5 470/6/5
f 472/6/5 468/6/5 467/6/5
f 473/6/5 468/6/5 472/6/5
f 475/2/5 470/2/5 469/2/5
f 476/2/5 470/2/5 475/2/5
f 477/2/5 474/2/5 473/2/5
f 478/2/5 474/2/5 477/2/5
f 483/6/5 480/6/5 479/6/5
f 484/6/5 482/6/5 481/6/5
f 485/6/5 483/6/5 479/6/5
f 486/6/5 483/6/5 485/6/5
f 489/6/5 482/6/5 484/6/5
f 490/6/5 482/6/5 489/6/5
f 491/6/5 488/6/5 487/6/5
f 492/6/5 488/6/5 491/6/5
f 499/6/5 494/6/5 493/6/5
f 500/6/5 494/6/5 499/6/5
f 501/6/5 496/6/5 495/6/5
f 502/6/5 496/6/5 501/6/5
f 503/6/5 498/6/5 497/6/5
f 504/6/5 498/6/5 503/6/5
f 509/6/5 506/6/5 505/6/5
f 510/6/5 506/6/5 509/6/5
f 511/6/5 508/6/5 507/6/5
f 512/6/5 508/6/5 511/6/5
f 515/6/5 514/6/5 513/6/5
f 516/6/5 514/6/5 515/6/5
f 517/6/5 514/6/5 516/6/5
f 518/6/5 514/6/5 517/6/5
f 521/6/5 516/6/5 515/6/5
f 522/6/5 516/6/5 521/6/5
f 523/6/5 518/6/5 517/6/5
f 524/6/5 518/6/5 523/6/5
f 527/6/5 520/6/5 519/6/5
f 528/6/5 520/6/5 527/6/5
f 529/6/5 526/6/5 525/6/5
f 530/6/5 526/6/5 529/6/5
f 531/6/6 532/6/6 535/6/6
f 532/5/6 533/5/6 536/5/6
f 535/6/6 532/6/6 536/6/6
f 533/4/6 534/4/6 537/4/6
f 536/5/6 533/5/6 537/5/6
f 537/4/6 534/4/6 538/4/6
f 535/4/6 536/4/6 539/4/6
f 539/4/6 536/4/6 540/4/6
f 537/6/6 538/6/6 542/6/6
f 542/6/6 538/6/6 543/6/6
f 539/6/6 540/6/6 544/6/6
f 540/4/6 541/4/6 545/4/6
f 544/6/6 540/6/6 545/6/6
f 541/6/6 542/6/6 546/6/6
f 545/4/6 541/4/6 546/4/6
f 542/4/6 543/4/6 547/4/6
f 546/6/6 542/6/6 547/6/6
f 547/4/6 543/4/6 548/4/6
f 549/6/6 550/6/6 553/6/6
f 553/6/6 550/6/6 554/6/6
f 551/6/6 552/6/6 555/6/6
f 555/6/6 552/6/6 556/6/6
f 557/6/6 558/6/6 561/6/6
f 561/6/6 558/6/6 562/6/6
f 559/6/6 560/6/6 563/6/6
f 563/6/6 560/6/6 564/6/6
f 565/6/6 566/6/6 568/6/6
f 568/6/6 566/6/6 569/6/6
f 567/6/6 568/6/6 572/6/6
f 572/6/6 568/6/6 573/6/6
f 569/6/6 570/6/6 574/6/6
f 574/6/6 570/6/6 575/6/6
f 571/6/6 572/6/6 577/6/6
f 577/6/6 572/6/6 578/6/6
f 575/6/6 576/6/6 579/6/6
f 579/6/6 576/6/6 580/6/6
f 581/6/6 582/6/6 583/6/6
f 583/6/6 582/6/6 584/6/6
f 585/6/6 586/6/6 587/6/6
f 587/6/6 586/6/6 588/6/6
f 589/6/6 590/6/6 592/6/6
f 592/6/6 590/6/6 593/6/6
f 591/6/6 592/6/6 596/6/6
f 596/6/6 592/6/6 597/6/6
f 593/6/6 594/6/6 598/6/6
f 598/6/6 594/6/6 599/6/6
f 595/6/6 596/6/6 601/6/6
f 601/6/6 596/6/6 602/6/6
f 599/6/6 600/6/6 606/6/6
f 606/6/6 600/6/6 607/6/6
f 603/6/6 604/6/6 608/6/6
f 608/6/6 604/6/6 609/6/6
f 605/6/6 606/6/6 610/6/6
f 610/6/6 606/6/6 611/6/6
f 609/6/6 610/6/6 612/6/6
f 612/6/6 610/6/6 613/6/6
f 614/6/6 615/6/6 617/6/6
f 617/6/6 615/6/6 618/6/6
f 616/6/6 617/6/6 620/6/6
f 620/6/6 617/6/6 621/6/6
f 618/6/6 619/6/6 622/6/6
f 622/6/6 619/6/6 623/6/6
f 621/6/6 622/6/6 624/6/6
f 624/6/6 622/6/6 625/6/6
f 626/6/6 627/6/6 628/6/6
f 628/6/6 627/6/6 629/6/6
