# MagicaVoxel @ Ephtracy

# group
o 

# material
mtllib Restraunt.mtl
usemtl palette

# normals
vn -1 0 0
vn 1 0 0
vn 0 0 1
vn 0 0 -1
vn 0 -1 0
vn 0 1 0

# texcoords
vt 0.369141 0.5
vt 0.373047 0.5
vt 0.396484 0.5
vt 0.419922 0.5
vt 0.537109 0.5
vt 0.560547 0.5

# verts
v 0 2 0
v 0 2 -4
v 0 2.1 0
v 0 2.1 -4
v 0 2.2 0
v 0 2.2 -4
v 0 2.4 0
v 0 2.4 -4
v 0 2.5 0
v 0 2.5 -4
v 0 2.7 0
v 0 2.7 -4
v 0 2.8 0
v 0 2.8 -4
v 0 3 0
v 0 3 -4
v 0 3.1 0
v 0 3.1 -4
v 0 3.3 0
v 0 3.3 -4
v 0 3.4 0
v 0 3.4 -4
v 0 3.6 0
v 0 3.6 -4
v 0 3.7 0
v 0 3.7 -4
v 0 3.9 0
v 0 3.9 -4
v 0 4 0
v 0 4 -4
v 0 4.2 0
v 0 4.2 -4
v 0 4.3 0
v 0 4.3 -4
v 0 4.4 0
v 0 4.4 -0.2
v 0 4.4 -3.8
v 0 4.4 -4
v 0 4.5 -0.2
v 0 4.5 -0.4
v 0 4.5 -3.6
v 0 4.5 -3.8
v 0 4.6 -0.4
v 0 4.6 -0.6
v 0 4.6 -3.4
v 0 4.6 -3.6
v 0 4.7 -0.6
v 0 4.7 -0.8
v 0 4.7 -3.2
v 0 4.7 -3.4
v 0 4.8 -0.8
v 0 4.8 -1
v 0 4.8 -3
v 0 4.8 -3.2
v 0 4.9 -1
v 0 4.9 -1.2
v 0 4.9 -2.8
v 0 4.9 -3
v 0 5 -1.2
v 0 5 -2.8
v 2.2 2.8 0
v 2.2 2.8 -0.1
v 2.2 3 0
v 2.2 3 -0.1
v 2.2 3.1 0
v 2.2 3.1 -0.1
v 2.2 3.3 0
v 2.2 3.3 -0.1
v 2.2 3.4 0
v 2.2 3.4 -0.1
v 2.2 3.6 0
v 2.2 3.6 -0.1
v 3.6 2.1 0
v 3.6 2.1 -0.1
v 3.6 2.2 0
v 3.6 2.2 -0.1
v 3.6 2.4 0
v 3.6 2.4 -0.1
v 3.6 2.5 0
v 3.6 2.5 -0.1
v 3.6 2.7 0
v 3.6 2.7 -0.1
v 3.6 2.8 0
v 3.6 2.8 -0.1
v 3.6 3 0
v 3.6 3 -0.1
v 3.6 3.1 0
v 3.6 3.1 -0.1
v 3.6 3.3 0
v 3.6 3.3 -0.1
v 3.6 3.4 0
v 3.6 3.4 -0.1
v 3.6 3.6 0
v 3.6 3.6 -0.1
v 3.6 3.7 0
v 3.6 3.7 -0.1
v 3.6 3.8 0
v 3.6 3.8 -0.1
v 3.9 2.1 -0.1
v 3.9 2.1 -3.9
v 3.9 2.2 -0.1
v 3.9 2.2 -3.9
v 3.9 2.4 -0.1
v 3.9 2.4 -3.9
v 3.9 2.5 -0.1
v 3.9 2.5 -3.9
v 3.9 2.7 -0.1
v 3.9 2.7 -3.9
v 3.9 2.8 -0.1
v 3.9 2.8 -3.9
v 3.9 3 -0.1
v 3.9 3 -3.9
v 3.9 3.1 -0.1
v 3.9 3.1 -3.9
v 3.9 3.3 -0.1
v 3.9 3.3 -3.9
v 3.9 3.4 -0.1
v 3.9 3.4 -3.9
v 3.9 3.6 -0.1
v 3.9 3.6 -3.9
v 3.9 3.7 -0.1
v 3.9 3.7 -3.9
v 3.9 3.9 -0.1
v 3.9 3.9 -3.9
v 3.9 4 -0.1
v 3.9 4 -3.9
v 3.9 4.1 -0.1
v 3.9 4.1 -3.9
v 0.1 2.1 -0.1
v 0.1 2.1 -1.2
v 0.1 2.1 -1.7
v 0.1 2.1 -3.9
v 0.1 2.2 -0.1
v 0.1 2.2 -1.2
v 0.1 2.2 -1.7
v 0.1 2.2 -3.9
v 0.1 2.4 -0.1
v 0.1 2.4 -1.2
v 0.1 2.4 -1.7
v 0.1 2.4 -3.9
v 0.1 2.5 -0.1
v 0.1 2.5 -1.2
v 0.1 2.5 -1.7
v 0.1 2.5 -3.9
v 0.1 2.7 -0.1
v 0.1 2.7 -1.2
v 0.1 2.7 -1.5
v 0.1 2.7 -1.7
v 0.1 2.7 -3.9
v 0.1 2.8 -0.1
v 0.1 2.8 -1.5
v 0.1 2.8 -1.7
v 0.1 2.8 -3.9
v 0.1 3 -0.1
v 0.1 3 -3.9
v 0.1 3.1 -0.1
v 0.1 3.1 -3.9
v 0.1 3.3 -0.1
v 0.1 3.3 -3.9
v 0.1 3.4 -0.1
v 0.1 3.4 -3.9
v 0.1 3.6 -0.1
v 0.1 3.6 -3.9
v 0.1 3.7 -0.1
v 0.1 3.7 -3.9
v 0.1 3.9 -0.1
v 0.1 3.9 -3.9
v 0.1 4 -0.1
v 0.1 4 -3.9
v 0.1 4.1 -0.1
v 0.1 4.1 -3.9
v 0.4 2.8 0
v 0.4 2.8 -0.1
v 0.4 3 0
v 0.4 3 -0.1
v 0.4 3.1 0
v 0.4 3.1 -0.1
v 0.4 3.3 0
v 0.4 3.3 -0.1
v 0.4 3.4 0
v 0.4 3.4 -0.1
v 0.4 3.6 0
v 0.4 3.6 -0.1
v 2.5 2.1 0
v 2.5 2.1 -0.1
v 2.5 2.1 -1.2
v 2.5 2.1 -1.7
v 2.5 2.2 0
v 2.5 2.2 -0.1
v 2.5 2.4 0
v 2.5 2.4 -0.1
v 2.5 2.5 0
v 2.5 2.5 -0.1
v 2.5 2.7 0
v 2.5 2.7 -0.1
v 2.5 2.7 -1.2
v 2.5 2.7 -1.5
v 2.5 2.7 -1.7
v 2.5 2.8 0
v 2.5 2.8 -0.1
v 2.5 2.8 -1.5
v 2.5 2.8 -1.7
v 2.5 3 0
v 2.5 3 -0.1
v 2.5 3.1 0
v 2.5 3.1 -0.1
v 2.5 3.3 0
v 2.5 3.3 -0.1
v 2.5 3.4 0
v 2.5 3.4 -0.1
v 2.5 3.6 0
v 2.5 3.6 -0.1
v 2.5 3.7 0
v 2.5 3.7 -0.1
v 2.5 3.8 0
v 2.5 3.8 -0.1
v 4 2 0
v 4 2 -4
v 4 2.1 0
v 4 2.1 -4
v 4 2.2 0
v 4 2.2 -4
v 4 2.4 0
v 4 2.4 -4
v 4 2.5 0
v 4 2.5 -4
v 4 2.7 0
v 4 2.7 -4
v 4 2.8 0
v 4 2.8 -4
v 4 3 0
v 4 3 -4
v 4 3.1 0
v 4 3.1 -4
v 4 3.3 0
v 4 3.3 -4
v 4 3.4 0
v 4 3.4 -4
v 4 3.6 0
v 4 3.6 -4
v 4 3.7 0
v 4 3.7 -4
v 4 3.9 0
v 4 3.9 -4
v 4 4 0
v 4 4 -4
v 4 4.2 0
v 4 4.2 -4
v 4 4.3 0
v 4 4.3 -4
v 4 4.4 0
v 4 4.4 -0.2
v 4 4.4 -3.8
v 4 4.4 -4
v 4 4.5 -0.2
v 4 4.5 -0.4
v 4 4.5 -3.6
v 4 4.5 -3.8
v 4 4.6 -0.4
v 4 4.6 -0.6
v 4 4.6 -3.4
v 4 4.6 -3.6
v 4 4.7 -0.6
v 4 4.7 -0.8
v 4 4.7 -3.2
v 4 4.7 -3.4
v 4 4.8 -0.8
v 4 4.8 -1
v 4 4.8 -3
v 4 4.8 -3.2
v 4 4.9 -1
v 4 4.9 -1.2
v 4 4.9 -2.8
v 4 4.9 -3
v 4 5 -1.2
v 4 5 -2.8
v 0 2 0
v 0 2.1 0
v 0 2.2 0
v 0 2.4 0
v 0 2.5 0
v 0 2.7 0
v 0 2.8 0
v 0 3 0
v 0 3.1 0
v 0 3.3 0
v 0 3.4 0
v 0 3.6 0
v 0 3.7 0
v 0 3.9 0
v 0 4 0
v 0 4.2 0
v 0 4.3 0
v 0 4.4 0
v 0.4 2.8 0
v 0.4 3 0
v 0.4 3.1 0
v 0.4 3.3 0
v 0.4 3.4 0
v 0.4 3.6 0
v 2.2 2.8 0
v 2.2 3 0
v 2.2 3.1 0
v 2.2 3.3 0
v 2.2 3.4 0
v 2.2 3.6 0
v 2.5 2.1 0
v 2.5 2.2 0
v 2.5 2.4 0
v 2.5 2.5 0
v 2.5 2.7 0
v 2.5 2.8 0
v 2.5 3 0
v 2.5 3.1 0
v 2.5 3.3 0
v 2.5 3.4 0
v 2.5 3.6 0
v 2.5 3.7 0
v 2.5 3.8 0
v 3.6 2.1 0
v 3.6 2.2 0
v 3.6 2.4 0
v 3.6 2.5 0
v 3.6 2.7 0
v 3.6 2.8 0
v 3.6 3 0
v 3.6 3.1 0
v 3.6 3.3 0
v 3.6 3.4 0
v 3.6 3.6 0
v 3.6 3.7 0
v 3.6 3.8 0
v 4 2 0
v 4 2.1 0
v 4 2.2 0
v 4 2.4 0
v 4 2.5 0
v 4 2.7 0
v 4 2.8 0
v 4 3 0
v 4 3.1 0
v 4 3.3 0
v 4 3.4 0
v 4 3.6 0
v 4 3.7 0
v 4 3.9 0
v 4 4 0
v 4 4.2 0
v 4 4.3 0
v 4 4.4 0
v 0 4.4 -0.2
v 0 4.5 -0.2
v 4 4.4 -0.2
v 4 4.5 -0.2
v 0 4.5 -0.4
v 0 4.6 -0.4
v 4 4.5 -0.4
v 4 4.6 -0.4
v 0 4.6 -0.6
v 0 4.7 -0.6
v 4 4.6 -0.6
v 4 4.7 -0.6
v 0 4.7 -0.8
v 0 4.8 -0.8
v 4 4.7 -0.8
v 4 4.8 -0.8
v 0 4.8 -1
v 0 4.9 -1
v 4 4.8 -1
v 4 4.9 -1
v 0 4.9 -1.2
v 0 5 -1.2
v 0.1 2.1 -1.2
v 0.1 2.2 -1.2
v 0.1 2.4 -1.2
v 0.1 2.5 -1.2
v 0.1 2.7 -1.2
v 2.5 2.1 -1.2
v 2.5 2.7 -1.2
v 4 4.9 -1.2
v 4 5 -1.2
v 0.1 2.7 -1.5
v 0.1 2.8 -1.5
v 2.5 2.7 -1.5
v 2.5 2.8 -1.5
v 0.1 2.1 -3.9
v 0.1 2.2 -3.9
v 0.1 2.4 -3.9
v 0.1 2.5 -3.9
v 0.1 2.7 -3.9
v 0.1 2.8 -3.9
v 0.1 3 -3.9
v 0.1 3.1 -3.9
v 0.1 3.3 -3.9
v 0.1 3.4 -3.9
v 0.1 3.6 -3.9
v 0.1 3.7 -3.9
v 0.1 3.9 -3.9
v 0.1 4 -3.9
v 0.1 4.1 -3.9
v 3.9 2.1 -3.9
v 3.9 2.2 -3.9
v 3.9 2.4 -3.9
v 3.9 2.5 -3.9
v 3.9 2.7 -3.9
v 3.9 2.8 -3.9
v 3.9 3 -3.9
v 3.9 3.1 -3.9
v 3.9 3.3 -3.9
v 3.9 3.4 -3.9
v 3.9 3.6 -3.9
v 3.9 3.7 -3.9
v 3.9 3.9 -3.9
v 3.9 4 -3.9
v 3.9 4.1 -3.9
v 0.1 2.1 -0.1
v 0.1 2.2 -0.1
v 0.1 2.4 -0.1
v 0.1 2.5 -0.1
v 0.1 2.7 -0.1
v 0.1 2.8 -0.1
v 0.1 3 -0.1
v 0.1 3.1 -0.1
v 0.1 3.3 -0.1
v 0.1 3.4 -0.1
v 0.1 3.6 -0.1
v 0.1 3.7 -0.1
v 0.1 3.9 -0.1
v 0.1 4 -0.1
v 0.1 4.1 -0.1
v 0.4 2.8 -0.1
v 0.4 3 -0.1
v 0.4 3.1 -0.1
v 0.4 3.3 -0.1
v 0.4 3.4 -0.1
v 0.4 3.6 -0.1
v 2.2 2.8 -0.1
v 2.2 3 -0.1
v 2.2 3.1 -0.1
v 2.2 3.3 -0.1
v 2.2 3.4 -0.1
v 2.2 3.6 -0.1
v 2.5 2.1 -0.1
v 2.5 2.2 -0.1
v 2.5 2.4 -0.1
v 2.5 2.5 -0.1
v 2.5 2.7 -0.1
v 2.5 2.8 -0.1
v 2.5 3 -0.1
v 2.5 3.1 -0.1
v 2.5 3.3 -0.1
v 2.5 3.4 -0.1
v 2.5 3.6 -0.1
v 2.5 3.7 -0.1
v 2.5 3.8 -0.1
v 3.6 2.1 -0.1
v 3.6 2.2 -0.1
v 3.6 2.4 -0.1
v 3.6 2.5 -0.1
v 3.6 2.7 -0.1
v 3.6 2.8 -0.1
v 3.6 3 -0.1
v 3.6 3.1 -0.1
v 3.6 3.3 -0.1
v 3.6 3.4 -0.1
v 3.6 3.6 -0.1
v 3.6 3.7 -0.1
v 3.6 3.8 -0.1
v 3.9 2.1 -0.1
v 3.9 2.2 -0.1
v 3.9 2.4 -0.1
v 3.9 2.5 -0.1
v 3.9 2.7 -0.1
v 3.9 2.8 -0.1
v 3.9 3 -0.1
v 3.9 3.1 -0.1
v 3.9 3.3 -0.1
v 3.9 3.4 -0.1
v 3.9 3.6 -0.1
v 3.9 3.7 -0.1
v 3.9 3.9 -0.1
v 3.9 4 -0.1
v 3.9 4.1 -0.1
v 0.1 2.1 -1.7
v 0.1 2.2 -1.7
v 0.1 2.4 -1.7
v 0.1 2.5 -1.7
v 0.1 2.7 -1.7
v 0.1 2.8 -1.7
v 2.5 2.1 -1.7
v 2.5 2.7 -1.7
v 2.5 2.8 -1.7
v 0 4.9 -2.8
v 0 5 -2.8
v 4 4.9 -2.8
v 4 5 -2.8
v 0 4.8 -3
v 0 4.9 -3
v 4 4.8 -3
v 4 4.9 -3
v 0 4.7 -3.2
v 0 4.8 -3.2
v 4 4.7 -3.2
v 4 4.8 -3.2
v 0 4.6 -3.4
v 0 4.7 -3.4
v 4 4.6 -3.4
v 4 4.7 -3.4
v 0 4.5 -3.6
v 0 4.6 -3.6
v 4 4.5 -3.6
v 4 4.6 -3.6
v 0 4.4 -3.8
v 0 4.5 -3.8
v 4 4.4 -3.8
v 4 4.5 -3.8
v 0 2 -4
v 0 2.1 -4
v 0 2.2 -4
v 0 2.4 -4
v 0 2.5 -4
v 0 2.7 -4
v 0 2.8 -4
v 0 3 -4
v 0 3.1 -4
v 0 3.3 -4
v 0 3.4 -4
v 0 3.6 -4
v 0 3.7 -4
v 0 3.9 -4
v 0 4 -4
v 0 4.2 -4
v 0 4.3 -4
v 0 4.4 -4
v 4 2 -4
v 4 2.1 -4
v 4 2.2 -4
v 4 2.4 -4
v 4 2.5 -4
v 4 2.7 -4
v 4 2.8 -4
v 4 3 -4
v 4 3.1 -4
v 4 3.3 -4
v 4 3.4 -4
v 4 3.6 -4
v 4 3.7 -4
v 4 3.9 -4
v 4 4 -4
v 4 4.2 -4
v 4 4.3 -4
v 4 4.4 -4
v 0 2 0
v 4 2 0
v 0 2 -4
v 4 2 -4
v 0.4 3.6 0
v 2.2 3.6 0
v 0.4 3.6 -0.1
v 2.2 3.6 -0.1
v 2.5 3.8 0
v 3.6 3.8 0
v 2.5 3.8 -0.1
v 3.6 3.8 -0.1
v 0.1 4.1 -0.1
v 3.9 4.1 -0.1
v 0.1 4.1 -3.9
v 3.9 4.1 -3.9
v 2.5 2.1 0
v 3.6 2.1 0
v 0.1 2.1 -0.1
v 2.5 2.1 -0.1
v 3.6 2.1 -0.1
v 3.9 2.1 -0.1
v 0.1 2.1 -1.2
v 2.5 2.1 -1.2
v 0.1 2.1 -1.7
v 2.5 2.1 -1.7
v 0.1 2.1 -3.9
v 3.9 2.1 -3.9
v 0.1 2.7 -1.2
v 2.5 2.7 -1.2
v 0.1 2.7 -1.5
v 2.5 2.7 -1.5
v 0.4 2.8 0
v 2.2 2.8 0
v 0.4 2.8 -0.1
v 2.2 2.8 -0.1
v 0.1 2.8 -1.5
v 2.5 2.8 -1.5
v 0.1 2.8 -1.7
v 2.5 2.8 -1.7
v 0 4.4 0
v 4 4.4 0
v 0 4.4 -0.2
v 4 4.4 -0.2
v 0 4.4 -3.8
v 4 4.4 -3.8
v 0 4.4 -4
v 4 4.4 -4
v 0 4.5 -0.2
v 4 4.5 -0.2
v 0 4.5 -0.4
v 4 4.5 -0.4
v 0 4.5 -3.6
v 4 4.5 -3.6
v 0 4.5 -3.8
v 4 4.5 -3.8
v 0 4.6 -0.4
v 4 4.6 -0.4
v 0 4.6 -0.6
v 4 4.6 -0.6
v 0 4.6 -3.4
v 4 4.6 -3.4
v 0 4.6 -3.6
v 4 4.6 -3.6
v 0 4.7 -0.6
v 4 4.7 -0.6
v 0 4.7 -0.8
v 4 4.7 -0.8
v 0 4.7 -3.2
v 4 4.7 -3.2
v 0 4.7 -3.4
v 4 4.7 -3.4
v 0 4.8 -0.8
v 4 4.8 -0.8
v 0 4.8 -1
v 4 4.8 -1
v 0 4.8 -3
v 4 4.8 -3
v 0 4.8 -3.2
v 4 4.8 -3.2
v 0 4.9 -1
v 4 4.9 -1
v 0 4.9 -1.2
v 4 4.9 -1.2
v 0 4.9 -2.8
v 4 4.9 -2.8
v 0 4.9 -3
v 4 4.9 -3
v 0 5 -1.2
v 4 5 -1.2
v 0 5 -2.8
v 4 5 -2.8

# faces
f 3/5/1 2/5/1 1/5/1
f 4/5/1 2/5/1 3/5/1
f 5/2/1 4/2/1 3/2/1
f 6/2/1 4/2/1 5/2/1
f 7/5/1 6/5/1 5/5/1
f 8/5/1 6/5/1 7/5/1
f 9/2/1 8/2/1 7/2/1
f 10/2/1 8/2/1 9/2/1
f 11/5/1 10/5/1 9/5/1
f 12/5/1 10/5/1 11/5/1
f 13/2/1 12/2/1 11/2/1
f 14/2/1 12/2/1 13/2/1
f 15/5/1 14/5/1 13/5/1
f 16/5/1 14/5/1 15/5/1
f 17/2/1 16/2/1 15/2/1
f 18/2/1 16/2/1 17/2/1
f 19/5/1 18/5/1 17/5/1
f 20/5/1 18/5/1 19/5/1
f 21/2/1 20/2/1 19/2/1
f 22/2/1 20/2/1 21/2/1
f 23/5/1 22/5/1 21/5/1
f 24/5/1 22/5/1 23/5/1
f 25/2/1 24/2/1 23/2/1
f 26/2/1 24/2/1 25/2/1
f 27/5/1 26/5/1 25/5/1
f 28/5/1 26/5/1 27/5/1
f 29/2/1 28/2/1 27/2/1
f 30/2/1 28/2/1 29/2/1
f 31/5/1 30/5/1 29/5/1
f 32/5/1 30/5/1 31/5/1
f 33/2/1 32/2/1 31/2/1
f 34/2/1 32/2/1 33/2/1
f 35/6/1 34/6/1 33/6/1
f 36/6/1 34/6/1 35/6/1
f 37/6/1 34/6/1 36/6/1
f 38/6/1 34/6/1 37/6/1
f 39/4/1 37/4/1 36/4/1
f 40/4/1 37/4/1 39/4/1
f 41/4/1 37/4/1 40/4/1
f 42/4/1 37/4/1 41/4/1
f 43/6/1 41/6/1 40/6/1
f 44/6/1 41/6/1 43/6/1
f 45/6/1 41/6/1 44/6/1
f 46/6/1 41/6/1 45/6/1
f 47/4/1 45/4/1 44/4/1
f 48/4/1 45/4/1 47/4/1
f 49/4/1 45/4/1 48/4/1
f 50/4/1 45/4/1 49/4/1
f 51/6/1 49/6/1 48/6/1
f 52/6/1 49/6/1 51/6/1
f 53/6/1 49/6/1 52/6/1
f 54/6/1 49/6/1 53/6/1
f 55/4/1 53/4/1 52/4/1
f 56/4/1 53/4/1 55/4/1
f 57/4/1 53/4/1 56/4/1
f 58/4/1 53/4/1 57/4/1
f 59/6/1 57/6/1 56/6/1
f 60/6/1 57/6/1 59/6/1
f 63/5/1 62/5/1 61/5/1
f 64/5/1 62/5/1 63/5/1
f 65/2/1 64/2/1 63/2/1
f 66/2/1 64/2/1 65/2/1
f 67/5/1 66/5/1 65/5/1
f 68/5/1 66/5/1 67/5/1
f 69/2/1 68/2/1 67/2/1
f 70/2/1 68/2/1 69/2/1
f 71/5/1 70/5/1 69/5/1
f 72/5/1 70/5/1 71/5/1
f 75/2/1 74/2/1 73/2/1
f 76/2/1 74/2/1 75/2/1
f 77/5/1 76/5/1 75/5/1
f 78/5/1 76/5/1 77/5/1
f 79/2/1 78/2/1 77/2/1
f 80/2/1 78/2/1 79/2/1
f 81/5/1 80/5/1 79/5/1
f 82/5/1 80/5/1 81/5/1
f 83/2/1 82/2/1 81/2/1
f 84/2/1 82/2/1 83/2/1
f 85/5/1 84/5/1 83/5/1
f 86/5/1 84/5/1 85/5/1
f 87/2/1 86/2/1 85/2/1
f 88/2/1 86/2/1 87/2/1
f 89/5/1 88/5/1 87/5/1
f 90/5/1 88/5/1 89/5/1
f 91/2/1 90/2/1 89/2/1
f 92/2/1 90/2/1 91/2/1
f 93/5/1 92/5/1 91/5/1
f 94/5/1 92/5/1 93/5/1
f 95/2/1 94/2/1 93/2/1
f 96/2/1 94/2/1 95/2/1
f 97/5/1 96/5/1 95/5/1
f 98/5/1 96/5/1 97/5/1
f 101/2/1 100/2/1 99/2/1
f 102/2/1 100/2/1 101/2/1
f 103/5/1 102/5/1 101/5/1
f 104/5/1 102/5/1 103/5/1
f 105/2/1 104/2/1 103/2/1
f 106/2/1 104/2/1 105/2/1
f 107/5/1 106/5/1 105/5/1
f 108/5/1 106/5/1 107/5/1
f 109/2/1 108/2/1 107/2/1
f 110/2/1 108/2/1 109/2/1
f 111/5/1 110/5/1 109/5/1
f 112/5/1 110/5/1 111/5/1
f 113/2/1 112/2/1 111/2/1
f 114/2/1 112/2/1 113/2/1
f 115/5/1 114/5/1 113/5/1
f 116/5/1 114/5/1 115/5/1
f 117/2/1 116/2/1 115/2/1
f 118/2/1 116/2/1 117/2/1
f 119/5/1 118/5/1 117/5/1
f 120/5/1 118/5/1 119/5/1
f 121/2/1 120/2/1 119/2/1
f 122/2/1 120/2/1 121/2/1
f 123/5/1 122/5/1 121/5/1
f 124/5/1 122/5/1 123/5/1
f 125/2/1 124/2/1 123/2/1
f 126/2/1 124/2/1 125/2/1
f 127/5/1 126/5/1 125/5/1
f 128/5/1 126/5/1 127/5/1
f 129/2/2 130/2/2 133/2/2
f 133/2/2 130/2/2 134/2/2
f 131/2/2 132/2/2 135/2/2
f 135/2/2 132/2/2 136/2/2
f 133/5/2 134/5/2 137/5/2
f 137/5/2 134/5/2 138/5/2
f 135/5/2 136/5/2 139/5/2
f 139/5/2 136/5/2 140/5/2
f 137/2/2 138/2/2 141/2/2
f 141/2/2 138/2/2 142/2/2
f 139/2/2 140/2/2 143/2/2
f 143/2/2 140/2/2 144/2/2
f 141/5/2 142/5/2 145/5/2
f 145/5/2 142/5/2 146/5/2
f 143/5/2 144/5/2 148/5/2
f 148/5/2 144/5/2 149/5/2
f 146/2/2 147/2/2 150/2/2
f 145/2/2 146/2/2 150/2/2
f 150/2/2 147/2/2 151/2/2
f 148/2/2 149/2/2 152/2/2
f 152/2/2 149/2/2 153/2/2
f 150/5/2 151/5/2 154/5/2
f 151/5/2 152/5/2 154/5/2
f 152/5/2 153/5/2 154/5/2
f 154/5/2 153/5/2 155/5/2
f 154/2/2 155/2/2 156/2/2
f 156/2/2 155/2/2 157/2/2
f 156/5/2 157/5/2 158/5/2
f 158/5/2 157/5/2 159/5/2
f 158/2/2 159/2/2 160/2/2
f 160/2/2 159/2/2 161/2/2
f 160/5/2 161/5/2 162/5/2
f 162/5/2 161/5/2 163/5/2
f 162/2/2 163/2/2 164/2/2
f 164/2/2 163/2/2 165/2/2
f 164/5/2 165/5/2 166/5/2
f 166/5/2 165/5/2 167/5/2
f 166/2/2 167/2/2 168/2/2
f 168/2/2 167/2/2 169/2/2
f 168/5/2 169/5/2 170/5/2
f 170/5/2 169/5/2 171/5/2
f 172/5/2 173/5/2 174/5/2
f 174/5/2 173/5/2 175/5/2
f 174/2/2 175/2/2 176/2/2
f 176/2/2 175/2/2 177/2/2
f 176/5/2 177/5/2 178/5/2
f 178/5/2 177/5/2 179/5/2
f 178/2/2 179/2/2 180/2/2
f 180/2/2 179/2/2 181/2/2
f 180/5/2 181/5/2 182/5/2
f 182/5/2 181/5/2 183/5/2
f 184/2/2 185/2/2 188/2/2
f 188/2/2 185/2/2 189/2/2
f 188/5/2 189/5/2 190/5/2
f 190/5/2 189/5/2 191/5/2
f 190/2/2 191/2/2 192/2/2
f 192/2/2 191/2/2 193/2/2
f 192/5/2 193/5/2 194/5/2
f 194/5/2 193/5/2 195/5/2
f 186/1/2 187/1/2 196/1/2
f 196/1/2 187/1/2 197/1/2
f 197/1/2 187/1/2 198/1/2
f 194/2/2 195/2/2 199/2/2
f 199/2/2 195/2/2 200/2/2
f 197/3/2 198/3/2 201/3/2
f 201/3/2 198/3/2 202/3/2
f 199/5/2 200/5/2 203/5/2
f 203/5/2 200/5/2 204/5/2
f 203/2/2 204/2/2 205/2/2
f 205/2/2 204/2/2 206/2/2
f 205/5/2 206/5/2 207/5/2
f 207/5/2 206/5/2 208/5/2
f 207/2/2 208/2/2 209/2/2
f 209/2/2 208/2/2 210/2/2
f 209/5/2 210/5/2 211/5/2
f 211/5/2 210/5/2 212/5/2
f 211/2/2 212/2/2 213/2/2
f 213/2/2 212/2/2 214/2/2
f 213/5/2 214/5/2 215/5/2
f 215/5/2 214/5/2 216/5/2
f 217/5/2 218/5/2 219/5/2
f 219/5/2 218/5/2 220/5/2
f 219/2/2 220/2/2 221/2/2
f 221/2/2 220/2/2 222/2/2
f 221/5/2 222/5/2 223/5/2
f 223/5/2 222/5/2 224/5/2
f 223/2/2 224/2/2 225/2/2
f 225/2/2 224/2/2 226/2/2
f 225/5/2 226/5/2 227/5/2
f 227/5/2 226/5/2 228/5/2
f 227/2/2 228/2/2 229/2/2
f 229/2/2 228/2/2 230/2/2
f 229/5/2 230/5/2 231/5/2
f 231/5/2 230/5/2 232/5/2
f 231/2/2 232/2/2 233/2/2
f 233/2/2 232/2/2 234/2/2
f 233/5/2 234/5/2 235/5/2
f 235/5/2 234/5/2 236/5/2
f 235/2/2 236/2/2 237/2/2
f 237/2/2 236/2/2 238/2/2
f 237/5/2 238/5/2 239/5/2
f 239/5/2 238/5/2 240/5/2
f 239/2/2 240/2/2 241/2/2
f 241/2/2 240/2/2 242/2/2
f 241/5/2 242/5/2 243/5/2
f 243/5/2 242/5/2 244/5/2
f 243/2/2 244/2/2 245/2/2
f 245/2/2 244/2/2 246/2/2
f 245/5/2 246/5/2 247/5/2
f 247/5/2 246/5/2 248/5/2
f 247/2/2 248/2/2 249/2/2
f 249/2/2 248/2/2 250/2/2
f 249/6/2 250/6/2 251/6/2
f 251/6/2 250/6/2 252/6/2
f 252/6/2 250/6/2 253/6/2
f 253/6/2 250/6/2 254/6/2
f 252/4/2 253/4/2 255/4/2
f 255/4/2 253/4/2 256/4/2
f 256/4/2 253/4/2 257/4/2
f 257/4/2 253/4/2 258/4/2
f 256/6/2 257/6/2 259/6/2
f 259/6/2 257/6/2 260/6/2
f 260/6/2 257/6/2 261/6/2
f 261/6/2 257/6/2 262/6/2
f 260/4/2 261/4/2 263/4/2
f 263/4/2 261/4/2 264/4/2
f 264/4/2 261/4/2 265/4/2
f 265/4/2 261/4/2 266/4/2
f 264/6/2 265/6/2 267/6/2
f 267/6/2 265/6/2 268/6/2
f 268/6/2 265/6/2 269/6/2
f 269/6/2 265/6/2 270/6/2
f 268/4/2 269/4/2 271/4/2
f 271/4/2 269/4/2 272/4/2
f 272/4/2 269/4/2 273/4/2
f 273/4/2 269/4/2 274/4/2
f 272/6/2 273/6/2 275/6/2
f 275/6/2 273/6/2 276/6/2
f 295/2/3 283/2/3 282/2/3
f 295/5/3 284/5/3 283/5/3
f 296/2/3 285/2/3 284/2/3
f 296/5/3 284/5/3 295/5/3
f 297/5/3 286/5/3 285/5/3
f 297/2/3 285/2/3 296/2/3
f 298/2/3 287/2/3 286/2/3
f 298/5/3 286/5/3 297/5/3
f 299/5/3 288/5/3 287/5/3
f 299/2/3 287/2/3 298/2/3
f 300/2/3 289/2/3 288/2/3
f 300/5/3 288/5/3 299/5/3
f 301/2/3 295/2/3 282/2/3
f 306/2/3 289/2/3 300/2/3
f 307/5/3 278/5/3 277/5/3
f 307/2/3 279/2/3 278/2/3
f 308/5/3 280/5/3 279/5/3
f 308/2/3 279/2/3 307/2/3
f 309/2/3 281/2/3 280/2/3
f 309/5/3 280/5/3 308/5/3
f 310/5/3 282/5/3 281/5/3
f 310/2/3 281/2/3 309/2/3
f 311/2/3 301/2/3 282/2/3
f 311/5/3 282/5/3 310/5/3
f 312/5/3 302/5/3 301/5/3
f 312/2/3 301/2/3 311/2/3
f 313/2/3 303/2/3 302/2/3
f 313/5/3 302/5/3 312/5/3
f 314/5/3 304/5/3 303/5/3
f 314/2/3 303/2/3 313/2/3
f 315/2/3 305/2/3 304/2/3
f 315/5/3 304/5/3 314/5/3
f 316/5/3 306/5/3 305/5/3
f 316/2/3 305/2/3 315/2/3
f 317/2/3 289/2/3 306/2/3
f 317/5/3 306/5/3 316/5/3
f 318/5/3 290/5/3 289/5/3
f 318/2/3 289/2/3 317/2/3
f 319/5/3 290/5/3 318/5/3
f 320/5/3 307/5/3 277/5/3
f 332/5/3 290/5/3 319/5/3
f 333/5/3 320/5/3 277/5/3
f 334/2/3 321/2/3 320/2/3
f 334/5/3 320/5/3 333/5/3
f 335/5/3 322/5/3 321/5/3
f 335/2/3 321/2/3 334/2/3
f 336/2/3 323/2/3 322/2/3
f 336/5/3 322/5/3 335/5/3
f 337/5/3 324/5/3 323/5/3
f 337/2/3 323/2/3 336/2/3
f 338/2/3 325/2/3 324/2/3
f 338/5/3 324/5/3 337/5/3
f 339/5/3 326/5/3 325/5/3
f 339/2/3 325/2/3 338/2/3
f 340/2/3 327/2/3 326/2/3
f 340/5/3 326/5/3 339/5/3
f 341/5/3 328/5/3 327/5/3
f 341/2/3 327/2/3 340/2/3
f 342/2/3 329/2/3 328/2/3
f 342/5/3 328/5/3 341/5/3
f 343/5/3 330/5/3 329/5/3
f 343/2/3 329/2/3 342/2/3
f 344/2/3 331/2/3 330/2/3
f 344/5/3 330/5/3 343/5/3
f 345/5/3 332/5/3 331/5/3
f 345/2/3 331/2/3 344/2/3
f 346/2/3 291/2/3 290/2/3
f 346/5/3 332/5/3 345/5/3
f 346/5/3 290/5/3 332/5/3
f 347/5/3 292/5/3 291/5/3
f 347/2/3 291/2/3 346/2/3
f 348/2/3 293/2/3 292/2/3
f 348/5/3 292/5/3 347/5/3
f 349/6/3 294/6/3 293/6/3
f 349/2/3 293/2/3 348/2/3
f 350/6/3 294/6/3 349/6/3
f 353/4/3 352/4/3 351/4/3
f 354/4/3 352/4/3 353/4/3
f 357/6/3 356/6/3 355/6/3
f 358/6/3 356/6/3 357/6/3
f 361/4/3 360/4/3 359/4/3
f 362/4/3 360/4/3 361/4/3
f 365/6/3 364/6/3 363/6/3
f 366/6/3 364/6/3 365/6/3
f 369/4/3 368/4/3 367/4/3
f 370/4/3 368/4/3 369/4/3
f 378/1/3 374/1/3 373/1/3
f 378/1/3 377/1/3 376/1/3
f 378/1/3 376/1/3 375/1/3
f 378/1/3 375/1/3 374/1/3
f 379/1/3 377/1/3 378/1/3
f 380/6/3 372/6/3 371/6/3
f 381/6/3 372/6/3 380/6/3
f 384/3/3 383/3/3 382/3/3
f 385/3/3 383/3/3 384/3/3
f 401/2/3 387/2/3 386/2/3
f 402/5/3 388/5/3 387/5/3
f 402/2/3 387/2/3 401/2/3
f 403/2/3 389/2/3 388/2/3
f 403/5/3 388/5/3 402/5/3
f 404/5/3 390/5/3 389/5/3
f 404/2/3 389/2/3 403/2/3
f 405/2/3 391/2/3 390/2/3
f 405/5/3 390/5/3 404/5/3
f 406/5/3 392/5/3 391/5/3
f 406/2/3 391/2/3 405/2/3
f 407/2/3 393/2/3 392/2/3
f 407/5/3 392/5/3 406/5/3
f 408/5/3 394/5/3 393/5/3
f 408/2/3 393/2/3 407/2/3
f 409/2/3 395/2/3 394/2/3
f 409/5/3 394/5/3 408/5/3
f 410/5/3 396/5/3 395/5/3
f 410/2/3 395/2/3 409/2/3
f 411/2/3 397/2/3 396/2/3
f 411/5/3 396/5/3 410/5/3
f 412/5/3 398/5/3 397/5/3
f 412/2/3 397/2/3 411/2/3
f 413/2/3 399/2/3 398/2/3
f 413/5/3 398/5/3 412/5/3
f 414/5/3 400/5/3 399/5/3
f 414/2/3 399/2/3 413/2/3
f 415/5/3 400/5/3 414/5/3
f 420/2/4 421/2/4 431/2/4
f 421/5/4 422/5/4 431/5/4
f 422/2/4 423/2/4 432/2/4
f 431/5/4 422/5/4 432/5/4
f 423/5/4 424/5/4 433/5/4
f 432/2/4 423/2/4 433/2/4
f 424/2/4 425/2/4 434/2/4
f 433/5/4 424/5/4 434/5/4
f 425/5/4 426/5/4 435/5/4
f 434/2/4 425/2/4 435/2/4
f 426/2/4 427/2/4 436/2/4
f 435/5/4 426/5/4 436/5/4
f 420/2/4 431/2/4 437/2/4
f 436/2/4 427/2/4 442/2/4
f 416/2/4 417/2/4 443/2/4
f 417/5/4 418/5/4 444/5/4
f 443/2/4 417/2/4 444/2/4
f 418/2/4 419/2/4 445/2/4
f 444/5/4 418/5/4 445/5/4
f 419/5/4 420/5/4 446/5/4
f 445/2/4 419/2/4 446/2/4
f 420/2/4 437/2/4 447/2/4
f 446/5/4 420/5/4 447/5/4
f 437/5/4 438/5/4 448/5/4
f 447/2/4 437/2/4 448/2/4
f 438/2/4 439/2/4 449/2/4
f 448/5/4 438/5/4 449/5/4
f 439/5/4 440/5/4 450/5/4
f 449/2/4 439/2/4 450/2/4
f 440/2/4 441/2/4 451/2/4
f 450/5/4 440/5/4 451/5/4
f 441/5/4 442/5/4 452/5/4
f 451/2/4 441/2/4 452/2/4
f 442/2/4 427/2/4 453/2/4
f 452/5/4 442/5/4 453/5/4
f 427/5/4 428/5/4 454/5/4
f 453/2/4 427/2/4 454/2/4
f 454/5/4 428/5/4 455/5/4
f 455/5/4 428/5/4 468/5/4
f 456/2/4 457/2/4 469/2/4
f 457/5/4 458/5/4 470/5/4
f 469/2/4 457/2/4 470/2/4
f 458/2/4 459/2/4 471/2/4
f 470/5/4 458/5/4 471/5/4
f 459/5/4 460/5/4 472/5/4
f 471/2/4 459/2/4 472/2/4
f 460/2/4 461/2/4 473/2/4
f 472/5/4 460/5/4 473/5/4
f 461/5/4 462/5/4 474/5/4
f 473/2/4 461/2/4 474/2/4
f 462/2/4 463/2/4 475/2/4
f 474/5/4 462/5/4 475/5/4
f 463/5/4 464/5/4 476/5/4
f 475/2/4 463/2/4 476/2/4
f 464/2/4 465/2/4 477/2/4
f 476/5/4 464/5/4 477/5/4
f 465/5/4 466/5/4 478/5/4
f 477/2/4 465/2/4 478/2/4
f 466/2/4 467/2/4 479/2/4
f 478/5/4 466/5/4 479/5/4
f 467/5/4 468/5/4 480/5/4
f 479/2/4 467/2/4 480/2/4
f 428/2/4 429/2/4 481/2/4
f 480/5/4 468/5/4 481/5/4
f 468/5/4 428/5/4 481/5/4
f 429/5/4 430/5/4 482/5/4
f 481/2/4 429/2/4 482/2/4
f 482/5/4 430/5/4 483/5/4
f 484/1/4 485/1/4 490/1/4
f 485/1/4 486/1/4 490/1/4
f 487/1/4 488/1/4 490/1/4
f 486/1/4 487/1/4 490/1/4
f 488/3/4 489/3/4 491/3/4
f 490/1/4 488/1/4 491/1/4
f 491/3/4 489/3/4 492/3/4
f 493/6/4 494/6/4 495/6/4
f 495/6/4 494/6/4 496/6/4
f 497/4/4 498/4/4 499/4/4
f 499/4/4 498/4/4 500/4/4
f 501/6/4 502/6/4 503/6/4
f 503/6/4 502/6/4 504/6/4
f 505/4/4 506/4/4 507/4/4
f 507/4/4 506/4/4 508/4/4
f 509/6/4 510/6/4 511/6/4
f 511/6/4 510/6/4 512/6/4
f 513/4/4 514/4/4 515/4/4
f 515/4/4 514/4/4 516/4/4
f 517/5/4 518/5/4 535/5/4
f 518/2/4 519/2/4 536/2/4
f 535/5/4 518/5/4 536/5/4
f 519/5/4 520/5/4 537/5/4
f 536/2/4 519/2/4 537/2/4
f 520/2/4 521/2/4 538/2/4
f 537/5/4 520/5/4 538/5/4
f 521/5/4 522/5/4 539/5/4
f 538/2/4 521/2/4 539/2/4
f 522/2/4 523/2/4 540/2/4
f 539/5/4 522/5/4 540/5/4
f 523/5/4 524/5/4 541/5/4
f 540/2/4 523/2/4 541/2/4
f 524/2/4 525/2/4 542/2/4
f 541/5/4 524/5/4 542/5/4
f 525/5/4 526/5/4 543/5/4
f 542/2/4 525/2/4 543/2/4
f 526/2/4 527/2/4 544/2/4
f 543/5/4 526/5/4 544/5/4
f 527/5/4 528/5/4 545/5/4
f 544/2/4 527/2/4 545/2/4
f 528/2/4 529/2/4 546/2/4
f 545/5/4 528/5/4 546/5/4
f 529/5/4 530/5/4 547/5/4
f 546/2/4 529/2/4 547/2/4
f 530/2/4 531/2/4 548/2/4
f 547/5/4 530/5/4 548/5/4
f 531/5/4 532/5/4 549/5/4
f 548/2/4 531/2/4 549/2/4
f 532/2/4 533/2/4 550/2/4
f 549/5/4 532/5/4 550/5/4
f 533/6/4 534/6/4 551/6/4
f 550/2/4 533/2/4 551/2/4
f 551/6/4 534/6/4 552/6/4
f 555/5/5 554/5/5 553/5/5
f 556/5/5 554/5/5 555/5/5
f 559/2/5 558/2/5 557/2/5
f 560/2/5 558/2/5 559/2/5
f 563/5/5 562/5/5 561/5/5
f 564/5/5 562/5/5 563/5/5
f 567/1/5 566/1/5 565/1/5
f 568/1/5 566/1/5 567/1/5
f 569/5/6 570/5/6 572/5/6
f 572/5/6 570/5/6 573/5/6
f 571/5/6 572/5/6 575/5/6
f 573/5/6 574/5/6 575/5/6
f 572/5/6 573/5/6 575/5/6
f 575/5/6 574/5/6 576/5/6
f 576/5/6 574/5/6 578/5/6
f 577/5/6 578/5/6 579/5/6
f 578/5/6 574/5/6 580/5/6
f 579/5/6 578/5/6 580/5/6
f 581/1/6 582/1/6 583/1/6
f 583/1/6 582/1/6 584/1/6
f 585/2/6 586/2/6 587/2/6
f 587/2/6 586/2/6 588/2/6
f 589/3/6 590/3/6 591/3/6
f 591/3/6 590/3/6 592/3/6
f 593/6/6 594/6/6 595/6/6
f 595/6/6 594/6/6 596/6/6
f 597/6/6 598/6/6 599/6/6
f 599/6/6 598/6/6 600/6/6
f 601/4/6 602/4/6 603/4/6
f 603/4/6 602/4/6 604/4/6
f 605/4/6 606/4/6 607/4/6
f 607/4/6 606/4/6 608/4/6
f 609/6/6 610/6/6 611/6/6
f 611/6/6 610/6/6 612/6/6
f 613/6/6 614/6/6 615/6/6
f 615/6/6 614/6/6 616/6/6
f 617/4/6 618/4/6 619/4/6
f 619/4/6 618/4/6 620/4/6
f 621/4/6 622/4/6 623/4/6
f 623/4/6 622/4/6 624/4/6
f 625/6/6 626/6/6 627/6/6
f 627/6/6 626/6/6 628/6/6
f 629/6/6 630/6/6 631/6/6
f 631/6/6 630/6/6 632/6/6
f 633/4/6 634/4/6 635/4/6
f 635/4/6 634/4/6 636/4/6
f 637/4/6 638/4/6 639/4/6
f 639/4/6 638/4/6 640/4/6
f 641/6/6 642/6/6 643/6/6
f 643/6/6 642/6/6 644/6/6
