# MagicaVoxel @ Ephtracy

# group
o 

# material
mtllib Skeleton-torso.mtl
usemtl palette

# normals
vn -1 0 0
vn 1 0 0
vn 0 0 1
vn 0 0 -1
vn 0 -1 0
vn 0 1 0

# texcoords
vt 0.958984 0.5
vt 0.966797 0.5

# verts
v 0 1 0
v 0 1 -0.3
v 0 1.1 0
v 0 1.1 -0.3
v 0 1.3 0
v 0 1.3 -0.1
v 0 1.3 -0.3
v 0 1.4 0
v 0 1.4 -0.1
v 0 1.4 -0.3
v 0.1 1.1 -0.1
v 0.1 1.1 -0.2
v 0.1 1.2 0
v 0.1 1.2 -0.1
v 0.1 1.2 -0.2
v 0.1 1.2 -0.3
v 0.1 1.3 0
v 0.1 1.3 -0.1
v 0.1 1.3 -0.3
v 0.1 1.4 -0.1
v 0.1 1.4 -0.2
v 0.1 1.5 -0.1
v 0.1 1.5 -0.2
v 0.3 1.1 -0.1
v 0.3 1.1 -0.2
v 0.3 1.2 0
v 0.3 1.2 -0.1
v 0.3 1.2 -0.2
v 0.3 1.2 -0.3
v 0.3 1.3 0
v 0.3 1.3 -0.2
v 0.3 1.3 -0.3
v 0.3 1.4 -0.1
v 0.3 1.4 -0.2
v 0.3 1.5 -0.1
v 0.3 1.5 -0.2
v 0.4 1 0
v 0.4 1 -0.3
v 0.4 1.1 0
v 0.4 1.1 -0.3
v 0.4 1.3 0
v 0.4 1.3 -0.2
v 0.4 1.3 -0.3
v 0.4 1.4 0
v 0.4 1.4 -0.2
v 0.4 1.4 -0.3
v 0 1 0
v 0 1.1 0
v 0 1.3 0
v 0 1.4 0
v 0.1 1.2 0
v 0.1 1.3 0
v 0.1 1.4 0
v 0.2 1.2 0
v 0.2 1.3 0
v 0.3 1.2 0
v 0.3 1.3 0
v 0.4 1 0
v 0.4 1.1 0
v 0.4 1.3 0
v 0.4 1.4 0
v 0.1 1.1 -0.1
v 0.1 1.2 -0.1
v 0.1 1.4 -0.1
v 0.1 1.5 -0.1
v 0.2 1.2 -0.1
v 0.3 1.1 -0.1
v 0.3 1.2 -0.1
v 0.3 1.4 -0.1
v 0.3 1.5 -0.1
v 0.1 1.1 -0.2
v 0.1 1.2 -0.2
v 0.1 1.4 -0.2
v 0.1 1.5 -0.2
v 0.2 1.2 -0.2
v 0.3 1.1 -0.2
v 0.3 1.2 -0.2
v 0.3 1.4 -0.2
v 0.3 1.5 -0.2
v 0 1 -0.3
v 0 1.1 -0.3
v 0 1.3 -0.3
v 0 1.4 -0.3
v 0.1 1.2 -0.3
v 0.1 1.3 -0.3
v 0.2 1.2 -0.3
v 0.2 1.3 -0.3
v 0.3 1.2 -0.3
v 0.3 1.3 -0.3
v 0.3 1.4 -0.3
v 0.4 1 -0.3
v 0.4 1.1 -0.3
v 0.4 1.3 -0.3
v 0.4 1.4 -0.3
v 0 1 0
v 0.4 1 0
v 0 1 -0.3
v 0.4 1 -0.3
v 0.1 1.2 0
v 0.2 1.2 0
v 0.3 1.2 0
v 0.1 1.2 -0.1
v 0.2 1.2 -0.1
v 0.3 1.2 -0.1
v 0.1 1.2 -0.2
v 0.2 1.2 -0.2
v 0.3 1.2 -0.2
v 0.1 1.2 -0.3
v 0.2 1.2 -0.3
v 0.3 1.2 -0.3
v 0 1.3 0
v 0.1 1.3 0
v 0.3 1.3 0
v 0.4 1.3 0
v 0 1.3 -0.1
v 0.1 1.3 -0.1
v 0.3 1.3 -0.2
v 0.4 1.3 -0.2
v 0 1.3 -0.3
v 0.1 1.3 -0.3
v 0.3 1.3 -0.3
v 0.4 1.3 -0.3
v 0 1.1 0
v 0.4 1.1 0
v 0.1 1.1 -0.1
v 0.3 1.1 -0.1
v 0.1 1.1 -0.2
v 0.3 1.1 -0.2
v 0 1.1 -0.3
v 0.4 1.1 -0.3
v 0 1.4 0
v 0.1 1.4 0
v 0.4 1.4 0
v 0 1.4 -0.1
v 0.1 1.4 -0.1
v 0.3 1.4 -0.1
v 0.1 1.4 -0.2
v 0.3 1.4 -0.2
v 0.4 1.4 -0.2
v 0 1.4 -0.3
v 0.3 1.4 -0.3
v 0.4 1.4 -0.3
v 0.1 1.5 -0.1
v 0.3 1.5 -0.1
v 0.1 1.5 -0.2
v 0.3 1.5 -0.2

# faces
f 3/1/1 2/1/1 1/1/1
f 4/1/1 2/1/1 3/1/1
f 8/2/1 6/2/1 5/2/1
f 9/1/1 7/1/1 6/1/1
f 9/2/1 6/2/1 8/2/1
f 10/1/1 7/1/1 9/1/1
f 14/2/1 12/2/1 11/2/1
f 15/2/1 12/2/1 14/2/1
f 17/2/1 14/2/1 13/2/1
f 18/1/1 16/1/1 15/1/1
f 18/2/1 14/2/1 17/2/1
f 18/1/1 15/1/1 14/1/1
f 19/1/1 16/1/1 18/1/1
f 22/2/1 21/2/1 20/2/1
f 23/2/1 21/2/1 22/2/1
f 24/2/2 25/2/2 27/2/2
f 27/2/2 25/2/2 28/2/2
f 26/1/2 27/1/2 30/1/2
f 27/1/2 28/1/2 30/1/2
f 28/2/2 29/2/2 31/2/2
f 30/1/2 28/1/2 31/1/2
f 31/2/2 29/2/2 32/2/2
f 33/2/2 34/2/2 35/2/2
f 35/2/2 34/2/2 36/2/2
f 37/1/2 38/1/2 39/1/2
f 39/1/2 38/1/2 40/1/2
f 41/1/2 42/1/2 44/1/2
f 42/2/2 43/2/2 45/2/2
f 44/1/2 42/1/2 45/1/2
f 45/2/2 43/2/2 46/2/2
f 52/2/3 50/2/3 49/2/3
f 53/2/3 50/2/3 52/2/3
f 54/2/3 52/2/3 51/2/3
f 55/1/3 53/1/3 52/1/3
f 55/2/3 52/2/3 54/2/3
f 56/1/3 55/1/3 54/1/3
f 57/1/3 53/1/3 55/1/3
f 57/1/3 55/1/3 56/1/3
f 58/1/3 48/1/3 47/1/3
f 59/1/3 48/1/3 58/1/3
f 60/1/3 53/1/3 57/1/3
f 61/1/3 53/1/3 60/1/3
f 66/2/3 63/2/3 62/2/3
f 67/2/3 66/2/3 62/2/3
f 68/2/3 66/2/3 67/2/3
f 69/2/3 65/2/3 64/2/3
f 70/2/3 65/2/3 69/2/3
f 71/2/4 72/2/4 75/2/4
f 71/2/4 75/2/4 76/2/4
f 76/2/4 75/2/4 77/2/4
f 73/2/4 74/2/4 78/2/4
f 78/2/4 74/2/4 79/2/4
f 82/1/4 83/1/4 85/1/4
f 84/1/4 85/1/4 86/1/4
f 85/1/4 83/1/4 87/1/4
f 86/1/4 85/1/4 87/1/4
f 86/2/4 87/2/4 88/2/4
f 87/1/4 83/1/4 89/1/4
f 88/2/4 87/2/4 89/2/4
f 89/1/4 83/1/4 90/1/4
f 80/1/4 81/1/4 91/1/4
f 91/1/4 81/1/4 92/1/4
f 89/2/4 90/2/4 93/2/4
f 93/2/4 90/2/4 94/2/4
f 97/1/5 96/1/5 95/1/5
f 98/1/5 96/1/5 97/1/5
f 102/2/5 100/2/5 99/2/5
f 103/1/5 101/1/5 100/1/5
f 103/2/5 100/2/5 102/2/5
f 104/1/5 101/1/5 103/1/5
f 108/1/5 106/1/5 105/1/5
f 109/2/5 107/2/5 106/2/5
f 109/1/5 106/1/5 108/1/5
f 110/2/5 107/2/5 109/2/5
f 115/2/5 112/2/5 111/2/5
f 116/2/5 112/2/5 115/2/5
f 117/1/5 114/1/5 113/1/5
f 118/1/5 114/1/5 117/1/5
f 119/1/5 116/1/5 115/1/5
f 120/1/5 116/1/5 119/1/5
f 121/2/5 118/2/5 117/2/5
f 122/2/5 118/2/5 121/2/5
f 123/1/6 124/1/6 125/1/6
f 125/1/6 124/1/6 126/1/6
f 123/1/6 125/1/6 127/1/6
f 126/1/6 124/1/6 128/1/6
f 123/1/6 127/1/6 129/1/6
f 127/1/6 128/1/6 129/1/6
f 128/1/6 124/1/6 130/1/6
f 129/1/6 128/1/6 130/1/6
f 131/2/6 132/2/6 134/2/6
f 132/1/6 133/1/6 135/1/6
f 134/2/6 132/2/6 135/2/6
f 135/1/6 133/1/6 136/1/6
f 134/1/6 135/1/6 137/1/6
f 136/1/6 133/1/6 138/1/6
f 138/1/6 133/1/6 139/1/6
f 134/1/6 137/1/6 140/1/6
f 137/1/6 138/1/6 140/1/6
f 138/2/6 139/2/6 141/2/6
f 140/1/6 138/1/6 141/1/6
f 141/2/6 139/2/6 142/2/6
f 143/2/6 144/2/6 145/2/6
f 145/2/6 144/2/6 146/2/6
