# MagicaVoxel @ Ephtracy

# group
o 

# material
mtllib Chef.mtl
usemtl palette

# normals
vn -1 0 0
vn 1 0 0
vn 0 0 1
vn 0 0 -1
vn 0 -1 0
vn 0 1 0

# texcoords
vt 0.0332031 0.5
vt 0.0605469 0.5
vt 0.634766 0.5
vt 0.958984 0.5
vt 0.990234 0.5
vt 0.994141 0.5

# verts
v 0 2 -0.1
v 0 2 -0.5
v 0 2.3 -0.1
v 0 2.3 -0.5
v 0.1 1.6 -0.2
v 0.1 1.6 -0.4
v 0.1 1.7 -0.1
v 0.1 1.7 -0.2
v 0.1 1.7 -0.4
v 0.1 1.7 -0.5
v 0.1 2 0
v 0.1 2 -0.1
v 0.1 2 -0.5
v 0.1 2 -0.6
v 0.1 2.3 0
v 0.1 2.3 -0.1
v 0.1 2.3 -0.5
v 0.1 2.3 -0.6
v 0.2 1 -0.1
v 0.2 1 -0.4
v 0.2 1.4 -0.1
v 0.2 1.4 -0.4
v 0.2 1.5 -0.1
v 0.2 1.5 -0.2
v 0.2 1.5 -0.5
v 0.2 1.6 -0.1
v 0.2 1.6 -0.2
v 0.2 1.6 -0.4
v 0.2 1.6 -0.5
v 0.2 1.7 -0.1
v 0.2 1.7 -0.2
v 0.2 1.7 -0.4
v 0.2 1.7 -0.5
v 0.3 1.4 -0.2
v 0.3 1.4 -0.3
v 0.3 1.5 -0.2
v 0.3 1.5 -0.3
v 0.5 2.1 -0.4
v 0.5 2.1 -0.5
v 0.5 2.2 -0.4
v 0.5 2.2 -0.5
v 0.7 2.1 -0.1
v 0.7 2.1 -0.4
v 0.7 2.2 -0.1
v 0.7 2.2 -0.4
v 0.1 2.1 -0.1
v 0.1 2.1 -0.5
v 0.1 2.2 -0.1
v 0.1 2.2 -0.5
v 0.5 1.4 -0.2
v 0.5 1.4 -0.3
v 0.5 1.5 -0.2
v 0.5 1.5 -0.3
v 0.6 1 -0.1
v 0.6 1 -0.4
v 0.6 1.4 -0.1
v 0.6 1.4 -0.4
v 0.6 1.5 -0.1
v 0.6 1.5 -0.2
v 0.6 1.5 -0.5
v 0.6 1.6 -0.1
v 0.6 1.6 -0.2
v 0.6 1.6 -0.4
v 0.6 1.6 -0.5
v 0.6 1.7 -0.1
v 0.6 1.7 -0.2
v 0.6 1.7 -0.4
v 0.6 1.7 -0.5
v 0.7 1.6 -0.2
v 0.7 1.6 -0.4
v 0.7 1.7 -0.1
v 0.7 1.7 -0.2
v 0.7 1.7 -0.4
v 0.7 1.7 -0.5
v 0.7 2 0
v 0.7 2 -0.1
v 0.7 2 -0.5
v 0.7 2 -0.6
v 0.7 2.3 0
v 0.7 2.3 -0.1
v 0.7 2.3 -0.5
v 0.7 2.3 -0.6
v 0.8 2 -0.1
v 0.8 2 -0.5
v 0.8 2.3 -0.1
v 0.8 2.3 -0.5
v 0.1 2 0
v 0.1 2.3 0
v 0.7 2 0
v 0.7 2.3 0
v 0 2 -0.1
v 0 2.3 -0.1
v 0.1 1.7 -0.1
v 0.1 2 -0.1
v 0.1 2.3 -0.1
v 0.2 1 -0.1
v 0.2 1.4 -0.1
v 0.2 1.5 -0.1
v 0.2 1.6 -0.1
v 0.2 1.7 -0.1
v 0.2 1.8 -0.1
v 0.3 1 -0.1
v 0.3 1.1 -0.1
v 0.3 1.2 -0.1
v 0.3 1.3 -0.1
v 0.3 1.6 -0.1
v 0.3 1.7 -0.1
v 0.4 1 -0.1
v 0.4 1.1 -0.1
v 0.4 1.2 -0.1
v 0.4 1.3 -0.1
v 0.5 1.6 -0.1
v 0.5 1.7 -0.1
v 0.6 1 -0.1
v 0.6 1.4 -0.1
v 0.6 1.5 -0.1
v 0.6 1.6 -0.1
v 0.6 1.7 -0.1
v 0.6 1.8 -0.1
v 0.7 1.7 -0.1
v 0.7 2 -0.1
v 0.7 2.3 -0.1
v 0.8 2 -0.1
v 0.8 2.3 -0.1
v 0.1 1.6 -0.2
v 0.1 1.7 -0.2
v 0.2 1.6 -0.2
v 0.2 1.7 -0.2
v 0.3 1.4 -0.2
v 0.3 1.5 -0.2
v 0.5 1.4 -0.2
v 0.5 1.5 -0.2
v 0.6 1.6 -0.2
v 0.6 1.7 -0.2
v 0.7 1.6 -0.2
v 0.7 1.7 -0.2
v 0.5 2.1 -0.4
v 0.5 2.2 -0.4
v 0.7 2.1 -0.4
v 0.7 2.2 -0.4
v 0.1 2.1 -0.5
v 0.1 2.2 -0.5
v 0.5 2.1 -0.5
v 0.5 2.2 -0.5
v 0.1 2.1 -0.1
v 0.1 2.2 -0.1
v 0.7 2.1 -0.1
v 0.7 2.2 -0.1
v 0.3 1.4 -0.3
v 0.3 1.5 -0.3
v 0.5 1.4 -0.3
v 0.5 1.5 -0.3
v 0.1 1.6 -0.4
v 0.1 1.7 -0.4
v 0.2 1 -0.4
v 0.2 1.4 -0.4
v 0.2 1.6 -0.4
v 0.2 1.7 -0.4
v 0.6 1 -0.4
v 0.6 1.4 -0.4
v 0.6 1.6 -0.4
v 0.6 1.7 -0.4
v 0.7 1.6 -0.4
v 0.7 1.7 -0.4
v 0 2 -0.5
v 0 2.3 -0.5
v 0.1 1.7 -0.5
v 0.1 2 -0.5
v 0.1 2.3 -0.5
v 0.2 1.5 -0.5
v 0.2 1.6 -0.5
v 0.2 1.7 -0.5
v 0.6 1.5 -0.5
v 0.6 1.6 -0.5
v 0.6 1.7 -0.5
v 0.7 1.7 -0.5
v 0.7 2 -0.5
v 0.7 2.3 -0.5
v 0.8 2 -0.5
v 0.8 2.3 -0.5
v 0.1 2 -0.6
v 0.1 2.3 -0.6
v 0.7 2 -0.6
v 0.7 2.3 -0.6
v 0.2 1 -0.1
v 0.3 1 -0.1
v 0.4 1 -0.1
v 0.6 1 -0.1
v 0.3 1 -0.2
v 0.4 1 -0.2
v 0.2 1 -0.4
v 0.6 1 -0.4
v 0.2 1.5 -0.1
v 0.6 1.5 -0.1
v 0.2 1.5 -0.2
v 0.3 1.5 -0.2
v 0.5 1.5 -0.2
v 0.6 1.5 -0.2
v 0.3 1.5 -0.3
v 0.5 1.5 -0.3
v 0.2 1.5 -0.5
v 0.6 1.5 -0.5
v 0.1 1.6 -0.2
v 0.2 1.6 -0.2
v 0.6 1.6 -0.2
v 0.7 1.6 -0.2
v 0.1 1.6 -0.4
v 0.2 1.6 -0.4
v 0.6 1.6 -0.4
v 0.7 1.6 -0.4
v 0.1 1.7 -0.1
v 0.2 1.7 -0.1
v 0.6 1.7 -0.1
v 0.7 1.7 -0.1
v 0.1 1.7 -0.2
v 0.2 1.7 -0.2
v 0.6 1.7 -0.2
v 0.7 1.7 -0.2
v 0.1 1.7 -0.4
v 0.2 1.7 -0.4
v 0.6 1.7 -0.4
v 0.7 1.7 -0.4
v 0.1 1.7 -0.5
v 0.2 1.7 -0.5
v 0.6 1.7 -0.5
v 0.7 1.7 -0.5
v 0.1 2 0
v 0.7 2 0
v 0 2 -0.1
v 0.1 2 -0.1
v 0.7 2 -0.1
v 0.8 2 -0.1
v 0 2 -0.5
v 0.1 2 -0.5
v 0.7 2 -0.5
v 0.8 2 -0.5
v 0.1 2 -0.6
v 0.7 2 -0.6
v 0.1 2.2 -0.1
v 0.7 2.2 -0.1
v 0.5 2.2 -0.4
v 0.7 2.2 -0.4
v 0.1 2.2 -0.5
v 0.5 2.2 -0.5
v 0.2 1.4 -0.1
v 0.6 1.4 -0.1
v 0.3 1.4 -0.2
v 0.5 1.4 -0.2
v 0.3 1.4 -0.3
v 0.5 1.4 -0.3
v 0.2 1.4 -0.4
v 0.6 1.4 -0.4
v 0.1 2.1 -0.1
v 0.7 2.1 -0.1
v 0.2 2.1 -0.2
v 0.6 2.1 -0.2
v 0.2 2.1 -0.3
v 0.3 2.1 -0.3
v 0.5 2.1 -0.3
v 0.6 2.1 -0.3
v 0.3 2.1 -0.4
v 0.5 2.1 -0.4
v 0.7 2.1 -0.4
v 0.1 2.1 -0.5
v 0.5 2.1 -0.5
v 0.1 2.3 0
v 0.7 2.3 0
v 0 2.3 -0.1
v 0.1 2.3 -0.1
v 0.7 2.3 -0.1
v 0.8 2.3 -0.1
v 0 2.3 -0.5
v 0.1 2.3 -0.5
v 0.7 2.3 -0.5
v 0.8 2.3 -0.5
v 0.1 2.3 -0.6
v 0.7 2.3 -0.6

# faces
f 3/4/1 2/4/1 1/4/1
f 4/4/1 2/4/1 3/4/1
f 8/4/1 6/4/1 5/4/1
f 9/4/1 6/4/1 8/4/1
f 12/4/1 8/4/1 7/4/1
f 12/4/1 10/4/1 9/4/1
f 12/4/1 9/4/1 8/4/1
f 13/4/1 10/4/1 12/4/1
f 15/4/1 12/4/1 11/4/1
f 16/4/1 12/4/1 15/4/1
f 17/4/1 14/4/1 13/4/1
f 18/4/1 14/4/1 17/4/1
f 21/4/1 20/4/1 19/4/1
f 22/4/1 20/4/1 21/4/1
f 26/1/1 24/1/1 23/1/1
f 27/5/1 25/5/1 24/5/1
f 27/1/1 24/1/1 26/1/1
f 28/5/1 25/5/1 27/5/1
f 29/5/1 25/5/1 28/5/1
f 30/6/1 27/6/1 26/6/1
f 31/6/1 27/6/1 30/6/1
f 32/4/1 29/4/1 28/4/1
f 33/4/1 29/4/1 32/4/1
f 36/2/1 35/2/1 34/2/1
f 37/2/1 35/2/1 36/2/1
f 40/4/1 39/4/1 38/4/1
f 41/4/1 39/4/1 40/4/1
f 44/4/1 43/4/1 42/4/1
f 45/4/1 43/4/1 44/4/1
f 46/4/2 47/4/2 48/4/2
f 48/4/2 47/4/2 49/4/2
f 50/2/2 51/2/2 52/2/2
f 52/2/2 51/2/2 53/2/2
f 54/4/2 55/4/2 56/4/2
f 56/4/2 55/4/2 57/4/2
f 58/1/2 59/1/2 61/1/2
f 59/5/2 60/5/2 62/5/2
f 61/1/2 59/1/2 62/1/2
f 62/5/2 60/5/2 63/5/2
f 63/5/2 60/5/2 64/5/2
f 61/6/2 62/6/2 65/6/2
f 65/6/2 62/6/2 66/6/2
f 63/4/2 64/4/2 67/4/2
f 67/4/2 64/4/2 68/4/2
f 69/4/2 70/4/2 72/4/2
f 72/4/2 70/4/2 73/4/2
f 71/4/2 72/4/2 76/4/2
f 73/4/2 74/4/2 76/4/2
f 72/4/2 73/4/2 76/4/2
f 76/4/2 74/4/2 77/4/2
f 75/4/2 76/4/2 79/4/2
f 79/4/2 76/4/2 80/4/2
f 77/4/2 78/4/2 81/4/2
f 81/4/2 78/4/2 82/4/2
f 83/4/2 84/4/2 85/4/2
f 85/4/2 84/4/2 86/4/2
f 89/4/3 88/4/3 87/4/3
f 90/4/3 88/4/3 89/4/3
f 94/4/3 92/4/3 91/4/3
f 95/4/3 92/4/3 94/4/3
f 100/4/3 94/4/3 93/4/3
f 101/4/3 94/4/3 100/4/3
f 102/4/3 97/4/3 96/4/3
f 103/4/3 97/4/3 102/4/3
f 104/4/3 97/4/3 103/4/3
f 105/4/3 97/4/3 104/4/3
f 106/1/3 99/1/3 98/1/3
f 106/6/3 100/6/3 99/6/3
f 107/1/3 101/1/3 100/1/3
f 107/6/3 100/6/3 106/6/3
f 108/6/3 103/6/3 102/6/3
f 109/4/3 104/4/3 103/4/3
f 109/6/3 103/6/3 108/6/3
f 110/6/3 105/6/3 104/6/3
f 110/4/3 104/4/3 109/4/3
f 111/4/3 97/4/3 105/4/3
f 111/6/3 105/6/3 110/6/3
f 112/1/3 106/1/3 98/1/3
f 112/1/3 107/1/3 106/1/3
f 113/1/3 101/1/3 107/1/3
f 113/1/3 107/1/3 112/1/3
f 114/4/3 110/4/3 109/4/3
f 114/4/3 109/4/3 108/4/3
f 114/4/3 111/4/3 110/4/3
f 115/4/3 97/4/3 111/4/3
f 115/4/3 111/4/3 114/4/3
f 116/1/3 112/1/3 98/1/3
f 117/6/3 113/6/3 112/6/3
f 117/1/3 112/1/3 116/1/3
f 118/1/3 101/1/3 113/1/3
f 118/6/3 113/6/3 117/6/3
f 119/4/3 94/4/3 101/4/3
f 119/1/3 101/1/3 118/1/3
f 120/4/3 119/4/3 118/4/3
f 121/4/3 94/4/3 119/4/3
f 121/4/3 119/4/3 120/4/3
f 123/4/3 122/4/3 121/4/3
f 124/4/3 122/4/3 123/4/3
f 127/4/3 126/4/3 125/4/3
f 128/4/3 126/4/3 127/4/3
f 131/2/3 130/2/3 129/2/3
f 132/2/3 130/2/3 131/2/3
f 135/4/3 134/4/3 133/4/3
f 136/4/3 134/4/3 135/4/3
f 139/4/3 138/4/3 137/4/3
f 140/4/3 138/4/3 139/4/3
f 143/4/3 142/4/3 141/4/3
f 144/4/3 142/4/3 143/4/3
f 145/4/4 146/4/4 147/4/4
f 147/4/4 146/4/4 148/4/4
f 149/2/4 150/2/4 151/2/4
f 151/2/4 150/2/4 152/2/4
f 153/4/4 154/4/4 157/4/4
f 157/4/4 154/4/4 158/4/4
f 155/4/4 156/4/4 159/4/4
f 159/4/4 156/4/4 160/4/4
f 161/4/4 162/4/4 163/4/4
f 163/4/4 162/4/4 164/4/4
f 165/4/4 166/4/4 168/4/4
f 168/4/4 166/4/4 169/4/4
f 167/4/4 168/4/4 172/4/4
f 170/5/4 171/5/4 173/5/4
f 171/4/4 172/4/4 174/4/4
f 173/5/4 171/5/4 174/5/4
f 172/4/4 168/4/4 175/4/4
f 174/4/4 172/4/4 175/4/4
f 175/4/4 168/4/4 176/4/4
f 176/4/4 168/4/4 177/4/4
f 177/4/4 178/4/4 179/4/4
f 179/4/4 178/4/4 180/4/4
f 181/4/4 182/4/4 183/4/4
f 183/4/4 182/4/4 184/4/4
f 189/4/5 186/4/5 185/4/5
f 189/6/5 187/6/5 186/6/5
f 190/4/5 188/4/5 187/4/5
f 190/6/5 187/6/5 189/6/5
f 191/4/5 189/4/5 185/4/5
f 191/4/5 190/4/5 189/4/5
f 192/4/5 188/4/5 190/4/5
f 192/4/5 190/4/5 191/4/5
f 195/1/5 194/1/5 193/1/5
f 196/1/5 194/1/5 195/1/5
f 197/1/5 194/1/5 196/1/5
f 198/1/5 194/1/5 197/1/5
f 199/5/5 196/5/5 195/5/5
f 200/5/5 198/5/5 197/5/5
f 201/5/5 199/5/5 195/5/5
f 201/5/5 200/5/5 199/5/5
f 202/5/5 198/5/5 200/5/5
f 202/5/5 200/5/5 201/5/5
f 207/4/5 204/4/5 203/4/5
f 208/4/5 204/4/5 207/4/5
f 209/4/5 206/4/5 205/4/5
f 210/4/5 206/4/5 209/4/5
f 215/4/5 212/4/5 211/4/5
f 216/4/5 212/4/5 215/4/5
f 217/4/5 214/4/5 213/4/5
f 218/4/5 214/4/5 217/4/5
f 223/4/5 220/4/5 219/4/5
f 224/4/5 220/4/5 223/4/5
f 225/4/5 222/4/5 221/4/5
f 226/4/5 222/4/5 225/4/5
f 230/4/5 228/4/5 227/4/5
f 231/4/5 228/4/5 230/4/5
f 233/4/5 230/4/5 229/4/5
f 234/4/5 230/4/5 233/4/5
f 235/4/5 232/4/5 231/4/5
f 236/4/5 232/4/5 235/4/5
f 237/4/5 235/4/5 234/4/5
f 238/4/5 235/4/5 237/4/5
f 241/4/5 240/4/5 239/4/5
f 242/4/5 240/4/5 241/4/5
f 243/4/5 241/4/5 239/4/5
f 244/4/5 241/4/5 243/4/5
f 245/4/6 246/4/6 247/4/6
f 247/4/6 246/4/6 248/4/6
f 245/4/6 247/4/6 249/4/6
f 248/4/6 246/4/6 250/4/6
f 245/4/6 249/4/6 251/4/6
f 249/4/6 250/4/6 251/4/6
f 250/4/6 246/4/6 252/4/6
f 251/4/6 250/4/6 252/4/6
f 253/4/6 254/4/6 255/4/6
f 255/4/6 254/4/6 256/4/6
f 253/4/6 255/4/6 257/4/6
f 255/3/6 256/3/6 257/3/6
f 257/3/6 256/3/6 258/3/6
f 258/3/6 256/3/6 259/3/6
f 256/4/6 254/4/6 260/4/6
f 259/3/6 256/3/6 260/3/6
f 258/5/6 259/5/6 261/5/6
f 257/4/6 258/4/6 261/4/6
f 259/4/6 260/4/6 262/4/6
f 261/5/6 259/5/6 262/5/6
f 260/4/6 254/4/6 263/4/6
f 262/4/6 260/4/6 263/4/6
f 261/4/6 262/4/6 264/4/6
f 253/4/6 257/4/6 264/4/6
f 257/4/6 261/4/6 264/4/6
f 264/4/6 262/4/6 265/4/6
f 266/4/6 267/4/6 269/4/6
f 269/4/6 267/4/6 270/4/6
f 268/4/6 269/4/6 272/4/6
f 270/4/6 271/4/6 272/4/6
f 269/4/6 270/4/6 272/4/6
f 272/4/6 271/4/6 273/4/6
f 273/4/6 271/4/6 274/4/6
f 274/4/6 271/4/6 275/4/6
f 273/4/6 274/4/6 276/4/6
f 276/4/6 274/4/6 277/4/6
